<svg width="90" height="117" viewBox="0 0 90 117" fill="none" xmlns="http://www.w3.org/2000/svg">
<g clip-path="url(#clip0_3302_4436)">
<rect width="90" height="117" fill="white"/>
<path d="M45 0C23.3591 0 0 15.3782 0 40.2187C0 52.4782 5.45727 62.7924 15.9382 70.6095C16.0478 70.7306 16.1743 70.8388 16.3145 70.9312C24.0914 78.4704 24.4841 79.9037 24.5373 83.2199C24.5618 84.5325 24.5495 84.9201 24.5373 85.1321L24.5209 85.8963C24.4595 87.5489 24.3655 90.3167 28.1986 91.3624L61.3105 97.8741C61.5729 97.9255 61.8441 97.9302 62.1085 97.8879C62.373 97.8456 62.6255 97.7572 62.8517 97.6277C63.078 97.4981 63.2734 97.33 63.427 97.133C63.5805 96.936 63.6891 96.7138 63.7466 96.4793C63.8041 96.2447 63.8093 96.0024 63.762 95.766C63.7147 95.5296 63.6157 95.3039 63.4708 95.1018C63.3259 94.8996 63.1378 94.7249 62.9173 94.5877C62.6969 94.4504 62.4483 94.3534 62.1859 94.302L29.2336 87.8268C28.5995 87.6549 28.5464 87.6403 28.6036 86.006L28.6159 85.3076C28.6159 85.3076 28.6568 85.0224 28.6241 83.1651C28.5464 78.5253 27.4173 76.284 19.1782 68.3243C19.021 68.1509 18.8297 68.0047 18.6136 67.8929C8.97546 60.5694 4.09091 51.2606 4.09091 40.2187C4.09091 17.6341 25.3227 3.65625 45 3.65625C65.1109 3.65625 85.9091 17.3343 85.9091 40.2187C85.9091 54.7633 78.0218 62.7815 71.5173 67.8271C71.2911 67.9257 71.0872 68.0608 70.9159 68.2256C62.5827 76.284 61.4536 78.5253 61.3759 83.1651V83.5417L61.3718 83.6696C61.3595 83.9475 61.3145 84.1011 61.3186 84.1596L60.84 84.0937L43.6786 80.485C43.417 80.4301 43.1458 80.4217 42.8806 80.4604C42.6153 80.4991 42.3612 80.5841 42.1327 80.7105C41.9042 80.837 41.7058 81.0024 41.5489 81.1974C41.3919 81.3924 41.2795 81.6132 41.218 81.847C41.1564 82.0808 41.1471 82.3232 41.1904 82.5603C41.2336 82.7973 41.3288 83.0244 41.4703 83.2287C41.6118 83.4329 41.7969 83.6102 42.0151 83.7505C42.2332 83.8907 42.4802 83.9912 42.7418 84.0462L59.6945 87.6001C59.9195 87.6732 61.9568 88.2655 63.675 87.1869C64.4236 86.7153 65.295 85.7902 65.4505 84.0206L65.4627 83.8488L65.4709 83.4868L65.4668 83.3917L65.4709 83.2236C65.5241 79.9256 65.9086 78.4924 73.6732 70.9532C73.7114 70.9288 73.7482 70.902 73.7836 70.8727C84.6941 62.6791 90 52.65 90 40.2187C90 15.0455 67.1195 0 45 0ZM61.3636 107.859C61.8274 107.859 62.2772 107.717 62.6392 107.458C63.0011 107.199 63.2539 106.838 63.3559 106.433C63.4756 105.961 63.3804 105.465 63.0912 105.055C62.802 104.645 62.3425 104.354 61.8136 104.247L29.0864 97.6146C28.5627 97.5198 28.0183 97.6119 27.5697 97.8712C27.121 98.1305 26.8037 98.5365 26.6856 99.0022C26.5675 99.4679 26.6579 99.9564 26.9376 100.363C27.2173 100.77 27.6641 101.063 28.1823 101.179L60.9095 107.812C61.0584 107.843 61.2108 107.859 61.3636 107.859ZM31.1277 108.057C30.8618 107.994 30.5844 107.98 30.3121 108.015C30.0399 108.05 29.7783 108.134 29.5432 108.261C29.3081 108.389 29.1041 108.558 28.9436 108.757C28.7831 108.957 28.6693 109.184 28.609 109.424C28.5487 109.663 28.5432 109.912 28.5927 110.154C28.6423 110.395 28.7459 110.626 28.8974 110.831C29.0489 111.036 29.2452 111.212 29.4745 111.348C29.7038 111.484 29.9613 111.577 30.2318 111.622L56.8227 116.952C57.0887 117.015 57.3661 117.03 57.6383 116.994C57.9106 116.959 58.1721 116.875 58.4073 116.748C58.6424 116.62 58.8463 116.452 59.0068 116.252C59.1674 116.052 59.2812 115.826 59.3415 115.586C59.4017 115.346 59.4073 115.098 59.3577 114.856C59.3081 114.614 59.2045 114.383 59.053 114.178C58.9015 113.973 58.7052 113.797 58.476 113.661C58.2467 113.526 57.9891 113.432 57.7186 113.388L31.1277 108.057Z" fill="#236A8D"/>
</g>
<defs>
<clipPath id="clip0_3302_4436">
<rect width="90" height="117" fill="white"/>
</clipPath>
</defs>
</svg>
