<svg width="54" height="54" viewBox="0 0 54 54" fill="none" xmlns="http://www.w3.org/2000/svg">
<path d="M33.873 22.7828C33.7355 21.7337 33.3634 20.7579 32.8101 19.9097L37.6013 13.0723C39.4127 10.4872 39.6243 7.27208 38.1672 4.4719C36.7102 1.67171 33.9557 0 30.799 0H23.2396C23.2314 0 23.2232 0.00126629 23.215 0.00158286C23.2086 0.00137181 23.2023 0 23.1958 0C20.0392 0 17.2847 1.67171 15.8277 4.4719C14.3707 7.27208 14.5822 10.4872 16.3936 13.0722L21.1848 19.9097C20.6303 20.7597 20.2577 21.7378 20.1209 22.7896C15.1591 25.0979 11.4592 29.8382 10.7515 35.6591C9.58447 45.2571 17.3257 54 26.9975 54C31.6534 54 36.1303 52.0099 39.2616 48.4727C39.9384 47.7081 38.7554 46.6563 38.0766 47.4235C34.8489 51.0695 30.0411 52.8962 25.2133 52.3091C17.1216 51.3253 11.3391 43.9419 12.3229 35.8502C13.3067 27.7586 20.6894 21.976 28.7818 22.9598C36.8735 23.9436 42.656 31.327 41.6722 39.4187C41.447 41.2709 40.807 43.2291 39.8702 44.9326C39.3773 45.829 40.7648 46.5902 41.2571 45.6955C42.2891 43.819 42.9946 41.6578 43.2436 39.6098C44.1206 32.3941 40.1371 25.6882 33.873 22.7828ZM17.2318 5.20254C18.3209 3.10937 20.3059 1.79507 22.6157 1.60639L26.1705 13.3434L25.0537 17.0309C23.9855 17.3434 23.0238 17.9059 22.2357 18.6514L17.69 12.164C16.2236 10.0715 16.0524 7.46909 17.2318 5.20254ZM26.9974 10.6132L24.2623 1.58286H29.7324L26.9974 10.6132ZM31.7591 18.6514C30.5157 17.4753 28.84 16.7518 26.9974 16.7518C26.928 16.7518 26.8594 16.7551 26.7905 16.7571L31.3791 1.60639C33.6889 1.79517 35.6738 3.10937 36.763 5.20254C37.9425 7.46909 37.7712 10.0715 36.3048 12.164L31.7591 18.6514ZM26.9974 18.3347C29.3913 18.3347 31.4227 19.9142 32.1056 22.0855C31.1045 21.757 30.0576 21.5203 28.9727 21.3884C26.5081 21.0889 24.1031 21.3574 21.8883 22.0892C22.5699 19.916 24.6022 18.3347 26.9974 18.3347Z" fill="#236A8D"/>
<path d="M26.9981 26.4175C20.8132 26.4175 15.7812 31.4494 15.7812 37.6344C15.7812 43.8193 20.8132 48.8512 26.9981 48.8512C33.1831 48.8512 38.215 43.8193 38.215 37.6344C38.215 31.4494 33.1831 26.4175 26.9981 26.4175ZM26.9981 47.2683C21.6859 47.2683 17.3641 42.9464 17.3641 37.6343C17.3641 32.3221 21.6859 28.0002 26.9981 28.0002C32.3103 28.0002 36.6322 32.3221 36.6322 37.6343C36.6322 42.9464 32.3103 47.2683 26.9981 47.2683Z" fill="#236A8D"/>
<path d="M32.4154 36.0517L29.9925 34.7266C29.9553 34.7063 29.925 34.676 29.9048 34.6389L28.5796 32.2159C28.2631 31.6374 27.6567 31.2778 26.9972 31.2778C26.3377 31.2778 25.7312 31.6374 25.4147 32.216L24.0895 34.6391C24.0693 34.6761 24.0389 34.7064 24.0018 34.7268L21.5789 36.0519C21.0003 36.3684 20.6406 36.9749 20.6406 37.6344C20.6406 38.2939 21.0001 38.9004 21.5789 39.2168L24.0021 40.5421C24.039 40.5623 24.0693 40.5925 24.0896 40.6297L25.4147 43.0526C25.7312 43.6313 26.3375 43.9908 26.9972 43.9908C27.6568 43.9908 28.2631 43.6313 28.5796 43.0526L29.9049 40.6297C29.925 40.5926 29.9554 40.5624 29.9926 40.542L32.4154 39.2168C32.9941 38.9004 33.3537 38.2939 33.3537 37.6344C33.3537 36.9749 32.9941 36.3683 32.4154 36.0517ZM31.6559 37.828L29.2333 39.153C28.9299 39.3188 28.6818 39.5667 28.516 39.8701L27.1908 42.293C27.1389 42.3879 27.0568 42.4079 26.9971 42.4079C26.9373 42.4079 26.8552 42.3879 26.8033 42.2931L25.4783 39.8703C25.3124 39.567 25.0643 39.3189 24.7611 39.1533L22.3383 37.8281C22.2434 37.7762 22.2234 37.6941 22.2234 37.6344C22.2234 37.5747 22.2433 37.4926 22.3383 37.4406L24.761 36.1156C25.0644 35.9498 25.3125 35.7018 25.4782 35.3985L26.8033 32.9757C26.8552 32.8808 26.9373 32.8609 26.9971 32.8609C27.0568 32.8609 27.1389 32.8808 27.1908 32.9757L28.5159 35.3985C28.6817 35.7019 28.9297 35.9499 29.233 36.1156L31.6559 37.4407C31.7507 37.4927 31.7708 37.5748 31.7708 37.6345C31.7708 37.6942 31.7508 37.776 31.6559 37.828Z" fill="#236A8D"/>
</svg>
