<svg width="52" height="61" viewBox="0 0 52 61" fill="none" xmlns="http://www.w3.org/2000/svg">
<path d="M26 60.8599C25.9245 60.8599 25.8491 60.853 25.7745 60.8388C18.5389 59.4715 11.9695 55.6446 7.27663 50.0626C2.58425 44.4806 0 37.4192 0 30.1792V9.66907C0 9.15683 0.338697 8.70364 0.83626 8.55075L25.6059 0.925781C25.7312 0.882751 25.8686 0.86261 26 0.859863H26.0014C26.1365 0.859863 26.2693 0.882751 26.3946 0.925781L51.1637 8.55075C51.6613 8.7041 52 9.15683 52 9.66907V30.1792C52 37.4192 49.4157 44.4806 44.7229 50.0626C40.0305 55.6446 33.4611 59.4715 26.2255 60.8388C26.1509 60.853 26.0755 60.8599 26 60.8599ZM2.38532 10.5297V30.1792C2.38532 43.9258 12.3026 55.7975 26 58.4937C39.6974 55.7975 49.6142 43.9258 49.6142 30.1792V10.5297L26 3.26038L2.38532 10.5297Z" fill="#236A8D"/>
<path d="M26.0002 53.8599C25.9049 53.8599 25.8096 53.8485 25.7171 53.8258C20.4218 52.5208 15.6438 49.4496 12.2623 45.1783C8.86878 40.891 7 35.5383 7 30.1057V14.553C7 14.0453 7.33307 13.5965 7.82191 13.4449L25.6493 7.91295C25.8774 7.84217 26.1226 7.84217 26.3507 7.91295L44.1781 13.4449C44.6669 13.5965 45 14.0453 45 14.553V30.1057C45 34.0767 44.0067 38.0295 42.1279 41.5367C41.8241 42.1035 41.1145 42.3186 40.5422 42.0182C39.97 41.7173 39.7524 41.0144 40.0557 40.4477C41.7559 37.2749 42.6543 33.6987 42.6543 30.1057V15.4066L25.9998 10.2385L9.34571 15.4066V30.1057C9.34571 40.1899 16.1794 48.9459 25.9998 51.4993C28.728 50.7901 31.263 49.5898 33.539 47.9295C34.0604 47.5492 34.7948 47.6595 35.1787 48.1759C35.5631 48.6923 35.4518 49.4197 34.93 49.7999C32.3272 51.699 29.418 53.0531 26.2829 53.8258C26.1904 53.8485 26.0951 53.8599 26.0002 53.8599Z" fill="#236A8D"/>
<path d="M23.8996 39.8599C23.6033 39.8599 23.3079 39.7419 23.0821 39.5058L15.3388 31.4138C14.8871 30.9423 14.8871 30.1771 15.3388 29.7051L19.2635 25.6036C19.4803 25.377 19.7744 25.2496 20.0811 25.2496C20.3878 25.2496 20.6818 25.377 20.8986 25.6036L23.8996 28.7398L31.1009 21.2137C31.5526 20.7422 32.2848 20.7417 32.7365 21.2137L36.6612 25.3152C36.878 25.5418 37 25.8491 37 26.1696C37 26.4901 36.878 26.7974 36.6612 27.0239L24.7172 39.5058C24.4914 39.7419 24.1955 39.8599 23.8996 39.8599ZM17.7914 30.5594L23.8996 36.9422L34.2081 26.1696L31.9185 23.7773L24.7172 31.3034C24.5004 31.5299 24.2063 31.6569 23.8996 31.6569C23.5929 31.6569 23.2989 31.5299 23.0821 31.3034L20.0811 28.1672L17.7914 30.5594Z" fill="#236A8D"/>
<path d="M38 46.8599C37.7371 46.8599 37.4789 46.7005 37.293 46.4204C37.107 46.1415 37 45.7542 37 45.3599C37 44.9655 37.107 44.5782 37.293 44.2993C37.4789 44.0204 37.7371 43.8599 38 43.8599C38.2629 43.8599 38.5211 44.0204 38.707 44.2993C38.893 44.5782 39 44.9655 39 45.3599C39 45.7542 38.893 46.1415 38.707 46.4204C38.5211 46.7005 38.2629 46.8599 38 46.8599Z" fill="#236A8D"/>
</svg>
