<svg width="45" height="44" viewBox="0 0 45 44" fill="none" xmlns="http://www.w3.org/2000/svg">
<path d="M3.94727 29.0104L10.6773 41.91L16.479 39.4312L6.95471 21.9692L3.94727 29.0104Z" fill="#236A8D"/>
<path d="M0.387918 37.3415C-0.955678 40.4857 1.35548 44.007 4.78864 44.007C5.43844 44.007 6.07104 43.8772 6.66841 43.6219L8.29891 42.9257L2.63727 32.0752L0.387918 37.3415Z" fill="#236A8D"/>
<path d="M10.0259 14.7773L8.24414 18.9494L18.8609 38.4132L29.2301 33.9841C22.074 31.4378 12.5691 21.9482 10.0259 14.7773Z" fill="#236A8D"/>
<path d="M27.9701 23.6029C27.4672 23.0993 27.4672 22.2827 27.9701 21.779L31.1228 18.6272C29.466 16.6292 27.4778 14.6243 25.3821 12.8865L22.2302 16.0392C21.7296 16.5399 20.9118 16.5448 20.4063 16.0392C19.9035 15.5355 19.9035 14.719 20.4063 14.2153L23.327 11.2955C20.5065 9.26672 15.3158 6.24328 12.8426 8.71439C9.98725 11.5706 14.1404 18.7114 19.7187 24.2906C24.0498 28.6217 29.3229 32.0932 32.8014 32.0932C33.8027 32.0932 34.6562 31.8053 35.2949 31.1667C37.764 28.6953 34.7477 23.5099 32.7137 20.6823L29.794 23.6029C29.2934 24.1035 28.4756 24.1084 27.9701 23.6029Z" fill="#236A8D"/>
<path d="M26.5393 11.7294C28.8583 9.41041 29.221 5.74715 27.4022 3.01819C26.1602 1.15562 23.8662 0.268596 21.6933 0.81181C21.0031 0.984573 20.5828 1.68422 20.7556 2.37527C20.9284 3.06546 21.628 3.48577 22.3191 3.313C23.4364 3.03366 24.6174 3.49006 25.2569 4.44928C26.3958 6.158 26.1688 8.45377 24.7163 9.90635L23.3273 11.2953C24.0089 11.7844 24.6965 12.3164 25.3824 12.8863L26.5393 11.7294Z" fill="#236A8D"/>
<path d="M39.5601 18.7526C40.5193 19.3921 40.9757 20.573 40.6963 21.6904C40.5236 22.3815 40.9439 23.0811 41.6341 23.2539C42.3251 23.4266 43.0248 23.0072 43.1975 22.3161C43.7408 20.1433 42.8537 17.8492 40.9912 16.6072C38.2622 14.7885 34.5989 15.1512 32.28 17.4702L31.123 18.6271C31.6929 19.313 32.2249 20.0006 32.714 20.6822L34.103 19.2932C35.5556 17.8406 37.8513 17.6129 39.5601 18.7526Z" fill="#236A8D"/>
<path d="M33.9197 11.9134L40.452 5.3811C40.9555 4.87759 40.9555 4.06131 40.452 3.5578C39.9486 3.0543 39.1322 3.0543 38.6287 3.5578L32.0964 10.0901C31.5929 10.5936 31.5929 11.4099 32.0964 11.9134C32.5998 12.4169 33.4162 12.417 33.9197 11.9134Z" fill="#236A8D"/>
<path d="M6.87912 4.72734H7.65268V5.50091C7.65268 6.21293 8.22993 6.79018 8.94196 6.79018C9.65398 6.79018 10.2312 6.21293 10.2312 5.50091V4.72734H11.0048C11.7168 4.72734 12.2941 4.15009 12.2941 3.43807C12.2941 2.72604 11.7168 2.14879 11.0048 2.14879H10.2312V1.28927C10.2312 0.577251 9.65398 0 8.94196 0C8.22993 0 7.65268 0.577251 7.65268 1.28927V2.14879H6.87912C6.1671 2.14879 5.58984 2.72604 5.58984 3.43807C5.58984 4.15009 6.1671 4.72734 6.87912 4.72734Z" fill="#236A8D"/>
<path d="M42.7216 32.4037H41.8621V31.6301C41.8621 30.9181 41.2848 30.3408 40.5728 30.3408C39.8608 30.3408 39.2835 30.9181 39.2835 31.6301V32.4037H38.51C37.798 32.4037 37.2207 32.9809 37.2207 33.6929C37.2207 34.405 37.798 34.9822 38.51 34.9822H39.2835V35.7558C39.2835 36.4678 39.8608 37.045 40.5728 37.045C41.2848 37.045 41.8621 36.4678 41.8621 35.7558V34.9822H42.7216C43.4336 34.9822 44.0109 34.405 44.0109 33.6929C44.0109 32.9809 43.4337 32.4037 42.7216 32.4037Z" fill="#236A8D"/>
<path d="M33.6979 2.57855C34.4099 2.57855 34.9872 2.0013 34.9872 1.28927C34.9872 0.577251 34.4099 0 33.6979 0C32.9777 0 32.4082 0.584213 32.4082 1.28927C32.4083 2.0013 32.9859 2.57855 33.6979 2.57855Z" fill="#236A8D"/>
<path d="M39.9727 11.6892C39.9727 12.4012 40.5503 12.9785 41.2624 12.9785C41.9744 12.9785 42.5516 12.4012 42.5516 11.6892C42.5516 10.9831 41.9806 10.3999 41.2615 10.3999C40.5494 10.3999 39.9727 10.9772 39.9727 11.6892Z" fill="#236A8D"/>
</svg>
