<svg width="117" height="117" viewBox="0 0 117 117" fill="none" xmlns="http://www.w3.org/2000/svg">
<path d="M111.15 97.5H109.005C108.691 95.9682 108.014 94.5343 107.029 93.3194C106.045 92.1044 104.783 91.1439 103.35 90.519V79.95C103.35 77.3641 102.323 74.8842 100.494 73.0557C98.6658 71.2272 96.1859 70.2 93.6 70.2C91.0141 70.2 88.5342 71.2272 86.7057 73.0557C84.8772 74.8842 83.85 77.3641 83.85 79.95V90.519C82.4167 91.1439 81.1547 92.1044 80.1705 93.3194C79.1863 94.5343 78.5088 95.9682 78.195 97.5H76.05C75.1784 97.5052 74.3189 97.705 73.5345 98.085C73.3412 97.889 73.1086 97.7362 72.852 97.6365L83.85 64.974C83.9467 64.6807 83.9724 64.3687 83.9249 64.0636C83.8774 63.7585 83.7582 63.469 83.577 63.219C83.3882 62.9532 83.1358 62.7389 82.8428 62.5958C82.5499 62.4528 82.2257 62.3854 81.9 62.4H76.05V58.5H87.75C88.2672 58.5 88.7632 58.2946 89.1289 57.9289C89.4946 57.5632 89.7 57.0672 89.7 56.55C89.7 56.0328 89.4946 55.5368 89.1289 55.1711C88.7632 54.8054 88.2672 54.6 87.75 54.6H76.05V44.85C76.0587 42.4 75.1446 40.0365 73.4897 38.2298C71.8348 36.4232 69.5604 35.3058 67.119 35.1C69.0746 32.97 70.1721 30.1914 70.2 27.3V21.45C71.4109 20.5418 72.3938 19.3642 73.0707 18.0103C73.7476 16.6565 74.1 15.1636 74.1 13.65C74.1 13.1328 73.8946 12.6368 73.5289 12.2711C73.1632 11.9054 72.6672 11.7 72.15 11.7H56.55C53.9641 11.7 51.4842 12.7272 49.6557 14.5557C47.8272 16.3842 46.8 18.8641 46.8 21.45V27.3C46.8279 30.1914 47.9254 32.97 49.881 35.1C47.4396 35.3058 45.1652 36.4232 43.5103 38.2298C41.8554 40.0365 40.9413 42.4 40.95 44.85V46.8C40.95 47.3172 41.1554 47.8132 41.5211 48.1789C41.8868 48.5446 42.3828 48.75 42.9 48.75C43.4172 48.75 43.9132 48.5446 44.2789 48.1789C44.6446 47.8132 44.85 47.3172 44.85 46.8V44.85C44.85 43.2985 45.4663 41.8105 46.5634 40.7134C47.6605 39.6163 49.1485 39 50.7 39H54.132L51.597 41.5155C51.4142 41.6968 51.2692 41.9124 51.1702 42.1501C51.0712 42.3877 51.0202 42.6426 51.0202 42.9C51.0202 43.1574 51.0712 43.4123 51.1702 43.6499C51.2692 43.8876 51.4142 44.1032 51.597 44.2845L57.1155 49.803C57.2968 49.9858 57.5125 50.1308 57.7501 50.2298C57.9877 50.3288 58.2426 50.3798 58.5 50.3798C58.7574 50.3798 59.0123 50.3288 59.2499 50.2298C59.4875 50.1308 59.7032 49.9858 59.8845 49.803L65.403 44.2845C65.5858 44.1032 65.7308 43.8876 65.8298 43.6499C65.9288 43.4123 65.9798 43.1574 65.9798 42.9C65.9798 42.6426 65.9288 42.3877 65.8298 42.1501C65.7308 41.9124 65.5858 41.6968 65.403 41.5155L62.868 39H66.3C67.8515 39 69.3395 39.6163 70.4366 40.7134C71.5337 41.8105 72.15 43.2985 72.15 44.85V62.4H68.25V56.55C68.25 56.0328 68.0446 55.5368 67.6789 55.1711C67.3132 54.8054 66.8172 54.6 66.3 54.6H50.7C50.1828 54.6 49.6868 54.8054 49.3211 55.1711C48.9554 55.5368 48.75 56.0328 48.75 56.55V62.4H44.85V54.6C44.85 54.0828 44.6446 53.5868 44.2789 53.2211C43.9132 52.8554 43.4172 52.65 42.9 52.65C42.3828 52.65 41.8868 52.8554 41.5211 53.2211C41.1554 53.5868 40.95 54.0828 40.95 54.6H5.85C5.33283 54.6 4.83684 54.3946 4.47114 54.0289C4.10545 53.6632 3.9 53.1672 3.9 52.65V9.75C3.9 8.19848 4.51634 6.71051 5.61343 5.61343C6.71051 4.51634 8.19848 3.9 9.75 3.9H21.45C21.9672 3.9 22.4632 3.69455 22.8289 3.32886C23.1946 2.96316 23.4 2.46717 23.4 1.95C23.4 1.43283 23.1946 0.936838 22.8289 0.571142C22.4632 0.205446 21.9672 0 21.45 0H9.75C7.16414 0 4.68419 1.02723 2.85571 2.85571C1.02723 4.68419 0 7.16414 0 9.75V52.65C0 54.2015 0.616338 55.6895 1.71343 56.7866C2.81051 57.8837 4.29848 58.5 5.85 58.5H40.95V62.4H35.1C34.7906 62.4014 34.486 62.4765 34.2114 62.6189C33.9368 62.7613 33.6999 62.967 33.5205 63.219C33.3393 63.469 33.2201 63.7585 33.1726 64.0636C33.1251 64.3687 33.1508 64.6807 33.2475 64.974L44.148 97.6365C43.8914 97.7362 43.6588 97.889 43.4655 98.085C42.6811 97.705 41.8216 97.5052 40.95 97.5H38.805C38.4129 95.5965 37.4608 93.8535 36.0709 92.495C34.6811 91.1364 32.917 90.2242 31.005 89.8755C32.3868 88.1707 33.1437 86.0444 33.15 83.85C33.15 81.2641 32.1228 78.7842 30.2943 76.9557C28.4658 75.1272 25.9859 74.1 23.4 74.1C20.8141 74.1 18.3342 75.1272 16.5057 76.9557C14.6772 78.7842 13.65 81.2641 13.65 83.85C13.6563 86.0444 14.4132 88.1707 15.795 89.8755C13.883 90.2242 12.1189 91.1364 10.7291 92.495C9.33924 93.8535 8.38715 95.5965 7.995 97.5H5.85C4.29848 97.5 2.81051 98.1163 1.71343 99.2134C0.616338 100.311 0 101.798 0 103.35V115.05C0 115.567 0.205446 116.063 0.571142 116.429C0.936838 116.795 1.43283 117 1.95 117C2.46717 117 2.96316 116.795 3.32886 116.429C3.69455 116.063 3.9 115.567 3.9 115.05V109.2H7.8V115.05C7.8 115.567 8.00545 116.063 8.37114 116.429C8.73684 116.795 9.23283 117 9.75 117H37.05C37.5672 117 38.0632 116.795 38.4289 116.429C38.7946 116.063 39 115.567 39 115.05V109.2H42.9V115.05C42.9 115.567 43.1054 116.063 43.4711 116.429C43.8368 116.795 44.3328 117 44.85 117C45.3672 117 45.8632 116.795 46.2289 116.429C46.5946 116.063 46.8 115.567 46.8 115.05V109.2H50.7C51.2172 109.2 51.7132 108.995 52.0789 108.629C52.4446 108.263 52.65 107.767 52.65 107.25C52.65 106.733 52.4446 106.237 52.0789 105.871C51.7132 105.505 51.2172 105.3 50.7 105.3H46.8V101.4H70.2V105.3H58.5C57.9828 105.3 57.4868 105.505 57.1211 105.871C56.7554 106.237 56.55 106.733 56.55 107.25C56.55 107.767 56.7554 108.263 57.1211 108.629C57.4868 108.995 57.9828 109.2 58.5 109.2H70.2V115.05C70.2 115.567 70.4054 116.063 70.7711 116.429C71.1368 116.795 71.6328 117 72.15 117C72.6672 117 73.1632 116.795 73.5289 116.429C73.8946 116.063 74.1 115.567 74.1 115.05V109.2H78V115.05C78 115.567 78.2054 116.063 78.5711 116.429C78.9368 116.795 79.4328 117 79.95 117H107.25C107.767 117 108.263 116.795 108.629 116.429C108.995 116.063 109.2 115.567 109.2 115.05V109.2H113.1V115.05C113.1 115.567 113.305 116.063 113.671 116.429C114.037 116.795 114.533 117 115.05 117C115.567 117 116.063 116.795 116.429 116.429C116.795 116.063 117 115.567 117 115.05V103.35C117 101.798 116.384 100.311 115.287 99.2134C114.189 98.1163 112.702 97.5 111.15 97.5ZM66.3 23.4V27.3C66.3 29.3687 65.4782 31.3526 64.0154 32.8154C62.5527 34.2782 60.5687 35.1 58.5 35.1C56.4313 35.1 54.4474 34.2782 52.9846 32.8154C51.5218 31.3526 50.7 29.3687 50.7 27.3V23.4H66.3ZM56.55 15.6H69.8685C69.4651 16.7411 68.7177 17.7289 67.7293 18.4274C66.741 19.1259 65.5603 19.5006 64.35 19.5H51.0315C51.4349 18.3589 52.1823 17.3711 53.1707 16.6726C54.1591 15.9741 55.3397 15.5994 56.55 15.6ZM58.5 45.669L55.731 42.9L58.5 40.131L61.269 42.9L58.5 45.669ZM87.75 79.95C87.75 79.1818 87.9013 78.4211 88.1953 77.7113C88.4893 77.0015 88.9202 76.3567 89.4634 75.8134C90.0067 75.2702 90.6515 74.8393 91.3613 74.5453C92.0711 74.2513 92.8318 74.1 93.6 74.1C94.3682 74.1 95.129 74.2513 95.8387 74.5453C96.5485 74.8393 97.1934 75.2702 97.7366 75.8134C98.2798 76.3567 98.7107 77.0015 99.0047 77.7113C99.2987 78.4211 99.45 79.1818 99.45 79.95V89.7H87.75V79.95ZM52.65 58.5H64.35V62.4H52.65V58.5ZM23.4 78C24.557 78 25.6881 78.3431 26.6501 78.9859C27.6121 79.6287 28.3619 80.5424 28.8047 81.6113C29.2475 82.6803 29.3633 83.8565 29.1376 84.9913C28.9119 86.1261 28.3547 87.1684 27.5366 87.9866C26.7184 88.8047 25.6761 89.3619 24.5413 89.5876C23.4065 89.8133 22.2302 89.6975 21.1613 89.2547C20.0924 88.8119 19.1787 88.0621 18.5359 87.1001C17.8931 86.1381 17.55 85.007 17.55 83.85C17.55 82.2985 18.1663 80.8105 19.2634 79.7134C20.3605 78.6163 21.8485 78 23.4 78ZM3.9 105.3V103.35C3.9 102.833 4.10545 102.337 4.47114 101.971C4.83684 101.605 5.33283 101.4 5.85 101.4H7.8V105.3H3.9ZM27.3 105.3H17.55C17.0328 105.3 16.5368 105.095 16.1711 104.729C15.8054 104.363 15.6 103.867 15.6 103.35C15.6036 103.091 15.6589 102.835 15.7627 102.597C15.8665 102.359 16.0167 102.144 16.2045 101.966C16.3774 101.783 16.5862 101.639 16.8179 101.541C17.0495 101.444 17.2988 101.396 17.55 101.4H29.25C29.7672 101.4 30.2632 101.605 30.6289 101.971C30.9946 102.337 31.2 102.833 31.2 103.35C31.1964 103.609 31.1411 103.865 31.0373 104.103C30.9335 104.341 30.7833 104.556 30.5955 104.734C30.4226 104.917 30.2138 105.061 29.9822 105.159C29.7505 105.256 29.5012 105.304 29.25 105.3H27.3ZM21.45 109.2H25.35V113.1H21.45V109.2ZM35.1 113.1H29.25V109.2C30.8015 109.2 32.2895 108.584 33.3866 107.487C34.4837 106.389 35.1 104.902 35.1 103.35C35.1 101.798 34.4837 100.311 33.3866 99.2134C32.2895 98.1163 30.8015 97.5 29.25 97.5H17.55C15.9985 97.5 14.5105 98.1163 13.4134 99.2134C12.3163 100.311 11.7 101.798 11.7 103.35C11.7 104.902 12.3163 106.389 13.4134 107.487C14.5105 108.584 15.9985 109.2 17.55 109.2V113.1H11.7V99.45C11.7 97.8985 12.3163 96.4105 13.4134 95.3134C14.5105 94.2163 15.9985 93.6 17.55 93.6H29.25C30.8015 93.6 32.2895 94.2163 33.3866 95.3134C34.4837 96.4105 35.1 97.8985 35.1 99.45V113.1ZM39 101.4H40.95C41.4672 101.4 41.9632 101.605 42.3289 101.971C42.6946 102.337 42.9 102.833 42.9 103.35V105.3H39V101.4ZM48.204 97.5L37.8105 66.3H79.1895L68.796 97.5H48.204ZM74.1 105.3V103.35C74.1 102.833 74.3054 102.337 74.6711 101.971C75.0368 101.605 75.5328 101.4 76.05 101.4H78V105.3H74.1ZM97.5 105.3H87.75C87.2328 105.3 86.7368 105.095 86.3711 104.729C86.0054 104.363 85.8 103.867 85.8 103.35C85.8036 103.091 85.8589 102.835 85.9627 102.597C86.0665 102.359 86.2167 102.144 86.4045 101.966C86.5774 101.783 86.7862 101.639 87.0179 101.541C87.2495 101.444 87.4988 101.396 87.75 101.4H99.45C99.9672 101.4 100.463 101.605 100.829 101.971C101.195 102.337 101.4 102.833 101.4 103.35C101.396 103.609 101.341 103.865 101.237 104.103C101.133 104.341 100.983 104.556 100.796 104.734C100.623 104.917 100.414 105.061 100.182 105.159C99.9505 105.256 99.7012 105.304 99.45 105.3H97.5ZM91.65 109.2H95.55V113.1H91.65V109.2ZM105.3 113.1H99.45V109.2C101.002 109.2 102.489 108.584 103.587 107.487C104.684 106.389 105.3 104.902 105.3 103.35C105.3 101.798 104.684 100.311 103.587 99.2134C102.489 98.1163 101.002 97.5 99.45 97.5H87.75C86.1985 97.5 84.7105 98.1163 83.6134 99.2134C82.5163 100.311 81.9 101.798 81.9 103.35C81.9 104.902 82.5163 106.389 83.6134 107.487C84.7105 108.584 86.1985 109.2 87.75 109.2V113.1H81.9V99.45C81.9 97.8985 82.5163 96.4105 83.6134 95.3134C84.7105 94.2163 86.1985 93.6 87.75 93.6H99.45C101.002 93.6 102.489 94.2163 103.587 95.3134C104.684 96.4105 105.3 97.8985 105.3 99.45V113.1ZM109.2 101.4H111.15C111.667 101.4 112.163 101.605 112.529 101.971C112.895 102.337 113.1 102.833 113.1 103.35V105.3H109.2V101.4Z" fill="#236A8D"/>
<path d="M107.251 0H29.2508C28.7336 0 28.2376 0.205446 27.8719 0.571142C27.5062 0.936838 27.3008 1.43283 27.3008 1.95C27.3008 2.46717 27.5062 2.96316 27.8719 3.32886C28.2376 3.69455 28.7336 3.9 29.2508 3.9H107.251C108.802 3.9 110.29 4.51634 111.387 5.61343C112.484 6.71051 113.101 8.19848 113.101 9.75V52.65C113.101 53.1672 112.895 53.6632 112.53 54.0289C112.164 54.3946 111.668 54.6 111.151 54.6H95.5508C95.0336 54.6 94.5376 54.8054 94.1719 55.1711C93.8062 55.5368 93.6008 56.0328 93.6008 56.55C93.6008 57.0672 93.8062 57.5632 94.1719 57.9289C94.5376 58.2946 95.0336 58.5 95.5508 58.5H111.151C112.702 58.5 114.19 57.8837 115.287 56.7866C116.384 55.6895 117.001 54.2015 117.001 52.65V9.75C117.001 7.16414 115.974 4.68419 114.145 2.85571C112.317 1.02723 109.837 0 107.251 0Z" fill="#236A8D"/>
<path d="M58.5004 70.2002C57.3434 70.2002 56.2123 70.5433 55.2503 71.1861C54.2883 71.8289 53.5385 72.7426 53.0957 73.8115C52.6529 74.8804 52.5371 76.0567 52.7628 77.1915C52.9885 78.3263 53.5457 79.3686 54.3638 80.1868C55.182 81.0049 56.2243 81.5621 57.3591 81.7878C58.4939 82.0135 59.6701 81.8977 60.7391 81.4549C61.808 81.0121 62.7217 80.2623 63.3645 79.3003C64.0073 78.3383 64.3504 77.2072 64.3504 76.0502C64.3504 74.4987 63.7341 73.0107 62.637 71.9136C61.5399 70.8165 60.0519 70.2002 58.5004 70.2002ZM58.5004 78.0002C58.1147 78.0002 57.7377 77.8858 57.417 77.6716C57.0964 77.4573 56.8464 77.1527 56.6988 76.7964C56.5512 76.4401 56.5126 76.048 56.5879 75.6698C56.6631 75.2915 56.8488 74.944 57.1215 74.6713C57.3942 74.3986 57.7417 74.2129 58.12 74.1377C58.4982 74.0624 58.8903 74.101 59.2466 74.2486C59.6029 74.3962 59.9075 74.6462 60.1218 74.9668C60.336 75.2875 60.4504 75.6645 60.4504 76.0502C60.4504 76.5674 60.2449 77.0634 59.8793 77.4291C59.5136 77.7948 59.0176 78.0002 58.5004 78.0002Z" fill="#236A8D"/>
<path d="M62.4004 85.7998H54.6004C54.0832 85.7998 53.5872 86.0052 53.2215 86.3709C52.8558 86.7366 52.6504 87.2326 52.6504 87.7498C52.6504 88.267 52.8558 88.763 53.2215 89.1287C53.5872 89.4944 54.0832 89.6998 54.6004 89.6998H62.4004C62.9176 89.6998 63.4136 89.4944 63.7793 89.1287C64.1449 88.763 64.3504 88.267 64.3504 87.7498C64.3504 87.2326 64.1449 86.7366 63.7793 86.3709C63.4136 86.0052 62.9176 85.7998 62.4004 85.7998Z" fill="#236A8D"/>
<path d="M42.8992 13.6502C42.8992 13.133 42.6938 12.637 42.3281 12.2713C41.9624 11.9056 41.4664 11.7002 40.9492 11.7002H13.6492C13.132 11.7002 12.6361 11.9056 12.2704 12.2713C11.9047 12.637 11.6992 13.133 11.6992 13.6502C11.6992 14.1674 11.9047 14.6634 12.2704 15.0291C12.6361 15.3947 13.132 15.6002 13.6492 15.6002H40.9492C41.4664 15.6002 41.9624 15.3947 42.3281 15.0291C42.6938 14.6634 42.8992 14.1674 42.8992 13.6502Z" fill="#236A8D"/>
<path d="M13.6492 31.2H21.4492C21.9664 31.2 22.4624 30.9946 22.8281 30.6289C23.1938 30.2632 23.3992 29.7672 23.3992 29.25V21.45C23.3992 20.9328 23.1938 20.4368 22.8281 20.0711C22.4624 19.7054 21.9664 19.5 21.4492 19.5H13.6492C13.132 19.5 12.6361 19.7054 12.2704 20.0711C11.9047 20.4368 11.6992 20.9328 11.6992 21.45V29.25C11.6992 29.7672 11.9047 30.2632 12.2704 30.6289C12.6361 30.9946 13.132 31.2 13.6492 31.2ZM15.5992 23.4H19.4992V27.3H15.5992V23.4Z" fill="#236A8D"/>
<path d="M39.0008 29.25V21.45C39.0008 20.9328 38.7953 20.4368 38.4296 20.0711C38.0639 19.7054 37.568 19.5 37.0508 19.5H29.2508C28.7336 19.5 28.2376 19.7054 27.8719 20.0711C27.5062 20.4368 27.3008 20.9328 27.3008 21.45V29.25C27.3008 29.7672 27.5062 30.2632 27.8719 30.6289C28.2376 30.9946 28.7336 31.2 29.2508 31.2H37.0508C37.568 31.2 38.0639 30.9946 38.4296 30.6289C38.7953 30.2632 39.0008 29.7672 39.0008 29.25ZM35.1008 27.3H31.2008V23.4H35.1008V27.3Z" fill="#236A8D"/>
<path d="M33.1492 35.1001H13.6492C13.132 35.1001 12.6361 35.3055 12.2704 35.6712C11.9047 36.0369 11.6992 36.5329 11.6992 37.0501C11.6992 37.5673 11.9047 38.0633 12.2704 38.429C12.6361 38.7947 13.132 39.0001 13.6492 39.0001H33.1492C33.6664 39.0001 34.1624 38.7947 34.5281 38.429C34.8938 38.0633 35.0992 37.5673 35.0992 37.0501C35.0992 36.5329 34.8938 36.0369 34.5281 35.6712C34.1624 35.3055 33.6664 35.1001 33.1492 35.1001Z" fill="#236A8D"/>
<path d="M33.1492 42.8999H13.6492C13.132 42.8999 12.6361 43.1053 12.2704 43.471C11.9047 43.8367 11.6992 44.3327 11.6992 44.8499C11.6992 45.3671 11.9047 45.8631 12.2704 46.2288C12.6361 46.5945 13.132 46.7999 13.6492 46.7999H33.1492C33.6664 46.7999 34.1624 46.5945 34.5281 46.2288C34.8938 45.8631 35.0992 45.3671 35.0992 44.8499C35.0992 44.3327 34.8938 43.8367 34.5281 43.471C34.1624 43.1053 33.6664 42.8999 33.1492 42.8999Z" fill="#236A8D"/>
<path d="M83.8504 15.6002H103.35C103.868 15.6002 104.364 15.3947 104.729 15.0291C105.095 14.6634 105.3 14.1674 105.3 13.6502C105.3 13.133 105.095 12.637 104.729 12.2713C104.364 11.9056 103.868 11.7002 103.35 11.7002H83.8504C83.3332 11.7002 82.8372 11.9056 82.4715 12.2713C82.1058 12.637 81.9004 13.133 81.9004 13.6502C81.9004 14.1674 82.1058 14.6634 82.4715 15.0291C82.8372 15.3947 83.3332 15.6002 83.8504 15.6002Z" fill="#236A8D"/>
<path d="M83.8504 23.4H103.35C103.868 23.4 104.364 23.1946 104.729 22.8289C105.095 22.4632 105.3 21.9672 105.3 21.45C105.3 20.9328 105.095 20.4368 104.729 20.0711C104.364 19.7054 103.868 19.5 103.35 19.5H83.8504C83.3332 19.5 82.8372 19.7054 82.4715 20.0711C82.1058 20.4368 81.9004 20.9328 81.9004 21.45C81.9004 21.9672 82.1058 22.4632 82.4715 22.8289C82.8372 23.1946 83.3332 23.4 83.8504 23.4Z" fill="#236A8D"/>
<path d="M83.8504 31.1998H103.35C103.868 31.1998 104.364 30.9944 104.729 30.6287C105.095 30.263 105.3 29.767 105.3 29.2498C105.3 28.7326 105.095 28.2366 104.729 27.8709C104.364 27.5052 103.868 27.2998 103.35 27.2998H83.8504C83.3332 27.2998 82.8372 27.5052 82.4715 27.8709C82.1058 28.2366 81.9004 28.7326 81.9004 29.2498C81.9004 29.767 82.1058 30.263 82.4715 30.6287C82.8372 30.9944 83.3332 31.1998 83.8504 31.1998Z" fill="#236A8D"/>
<path d="M82.875 43.8749C82.875 45.0319 83.2181 46.163 83.8609 47.125C84.5037 48.087 85.4174 48.8368 86.4863 49.2796C87.5553 49.7224 88.7315 49.8382 89.8663 49.6125C91.0011 49.3868 92.0434 48.8296 92.8616 48.0115C93.6797 47.1933 94.2369 46.151 94.4626 45.0162C94.6883 43.8814 94.5725 42.7052 94.1297 41.6362C93.6869 40.5673 92.9371 39.6536 91.9751 39.0108C91.0131 38.368 89.882 38.0249 88.725 38.0249C87.1735 38.0249 85.6855 38.6412 84.5884 39.7383C83.4913 40.8354 82.875 42.3234 82.875 43.8749ZM90.675 43.8749C90.675 44.2606 90.5606 44.6376 90.3464 44.9583C90.1321 45.2789 89.8275 45.5289 89.4712 45.6765C89.1149 45.8241 88.7228 45.8627 88.3446 45.7874C87.9663 45.7122 87.6189 45.5265 87.3461 45.2538C87.0734 44.981 86.8877 44.6336 86.8125 44.2553C86.7372 43.8771 86.7758 43.485 86.9234 43.1287C87.071 42.7724 87.321 42.4678 87.6416 42.2535C87.9623 42.0393 88.3393 41.9249 88.725 41.9249C89.2422 41.9249 89.7382 42.1303 90.1039 42.496C90.4696 42.8617 90.675 43.3577 90.675 43.8749Z" fill="#236A8D"/>
<path d="M103.35 35.1001C102.833 35.1001 102.337 35.3055 101.972 35.6712C101.606 36.0369 101.4 36.5329 101.4 37.0501V48.7501C101.4 49.2673 101.606 49.7633 101.972 50.129C102.337 50.4947 102.833 50.7001 103.35 50.7001C103.868 50.7001 104.364 50.4947 104.729 50.129C105.095 49.7633 105.3 49.2673 105.3 48.7501V37.0501C105.3 36.5329 105.095 36.0369 104.729 35.6712C104.364 35.3055 103.868 35.1001 103.35 35.1001Z" fill="#236A8D"/>
</svg>
