<svg width="54" height="52" viewBox="0 0 54 52" fill="none" xmlns="http://www.w3.org/2000/svg">
<path d="M54 12.8811C54 11.9612 53.5296 11.1491 52.8167 10.6728C53.1111 10.2547 53.2883 9.74904 53.2984 9.20513C53.3116 8.50124 53.0419 7.83161 52.5392 7.31925C52.0285 6.79886 51.3201 6.50039 50.5958 6.50039H49.4093V1.25732C49.4093 0.820367 49.0551 0.466309 48.6182 0.466309C48.1814 0.466309 47.8272 0.820367 47.8272 1.25732V6.50039H38.2626V1.25732C38.2626 0.820367 37.9084 0.466309 37.4716 0.466309C37.0347 0.466309 36.6806 0.820367 36.6806 1.25732V2.39839L32.8898 3.15334C31.9642 3.3377 31.1895 3.96566 30.8178 4.83314L30.1032 6.50039H26.7113C26.2745 6.50039 25.9203 6.85444 25.9203 7.2914C25.9203 7.72836 26.2745 8.08242 26.7113 8.08242H30.6248C30.9412 8.08242 31.2271 7.89384 31.3519 7.60306L32.272 5.45635C32.4383 5.06833 32.7849 4.78736 33.1989 4.70489L36.6807 4.01143V6.50039H35.5723C35.1354 6.50039 34.7813 6.85444 34.7813 7.2914C34.7813 7.72836 35.1354 8.08242 35.5723 8.08242H50.5959C50.8983 8.08242 51.1951 8.20803 51.4101 8.42741C51.613 8.63412 51.7219 8.8998 51.7167 9.1755C51.7058 9.75526 51.2249 10.227 50.6446 10.227C50.5905 10.227 39.892 10.2269 39.892 10.2269C39.4551 10.2269 39.101 10.581 39.101 11.0179C39.101 11.4549 39.4551 11.8089 39.892 11.8089L51.3457 11.8091C51.9368 11.8091 52.4179 12.2901 52.4179 12.8812C52.4179 13.4724 51.9368 13.9534 51.3457 13.9534L39.892 13.9533C39.4551 13.9533 39.101 14.3074 39.101 14.7444C39.101 15.1813 39.4551 15.5354 39.892 15.5354C39.892 15.5354 49.8893 15.5355 49.9436 15.5355C50.5238 15.5355 51.0047 16.0071 51.0156 16.5869C51.0207 16.8626 50.9119 17.1283 50.709 17.335C50.4938 17.5541 50.197 17.68 49.8947 17.68H39.892C39.4551 17.68 39.101 18.034 39.101 18.471C39.101 18.9079 39.4551 19.262 39.892 19.262H47.8404C48.4206 19.262 48.9015 19.7337 48.9124 20.3134C48.9176 20.5891 48.8087 20.8548 48.6058 21.0616C48.3906 21.2808 48.094 21.4065 47.7916 21.4065H33.4238C32.7564 21.4065 32.0996 21.1796 31.5745 20.7676L29.6281 19.2405C28.3186 18.2132 26.681 17.6475 25.0166 17.6475H17.3195V8.08242H23.232C23.6689 8.08242 24.023 7.72836 24.023 7.2914C24.023 6.85444 23.6689 6.50039 23.232 6.50039H17.3195V5.31386C17.3195 4.5895 17.0211 3.88118 16.5008 3.3705C15.9885 2.86762 15.3181 2.59941 14.6149 2.61123C14.071 2.62146 13.5654 2.79864 13.1472 3.0929C12.6708 2.38004 11.8588 1.90965 10.9389 1.90965C9.80585 1.90965 8.83628 2.62336 8.45617 3.62468C8.09852 3.43272 7.69268 3.32029 7.26289 3.31228C6.55878 3.30226 5.88948 3.56878 5.37711 4.07134C4.94343 4.4969 4.66393 5.05968 4.58272 5.65474C4.26231 5.5075 3.90836 5.42239 3.53637 5.41532C2.83152 5.40214 2.16295 5.67182 1.65059 6.17459C1.1302 6.68527 0.831727 7.39371 0.831727 8.11807V15.6412C0.831727 16.0781 1.18589 16.4322 1.62274 16.4322C2.05959 16.4322 2.41376 16.0781 2.41376 15.6412V8.11807C2.41376 7.81569 2.53948 7.51879 2.75875 7.30364C2.96546 7.10082 3.23336 6.98881 3.50673 6.99714C4.0866 7.00811 4.55825 7.48895 4.55825 8.06913V16.0176C4.55825 16.4545 4.91242 16.8086 5.34927 16.8086C5.78612 16.8086 6.14029 16.4545 6.14029 16.0176V6.01502C6.14029 5.71264 6.266 5.41575 6.48527 5.20059C6.69199 4.99777 6.95672 4.89114 7.23336 4.8942C7.81313 4.90507 8.28478 5.3859 8.28478 5.96608V16.0178C8.28478 16.4547 8.63895 16.8088 9.0758 16.8088C9.51265 16.8088 9.86681 16.4547 9.86681 16.0178V4.56398C9.86681 3.97283 10.3479 3.49179 10.9391 3.49179C11.5303 3.49179 12.0113 3.97283 12.0113 4.56398V16.0178C12.0113 16.4547 12.3655 16.8088 12.8023 16.8088C13.2392 16.8088 13.5933 16.4547 13.5933 16.0178C13.5933 16.0178 13.5933 5.31935 13.5933 5.26514C13.5933 4.68485 14.065 4.20391 14.6448 4.19315C14.9215 4.18767 15.1862 4.29672 15.3928 4.49964C15.612 4.7148 15.7377 5.01159 15.7377 5.31397V21.0245C15.7377 21.4614 16.0919 21.8155 16.5287 21.8155C16.9656 21.8155 17.3198 21.4614 17.3198 21.0245V19.2293H19.8086L19.1152 22.711C19.0327 23.1252 18.7517 23.4717 18.3637 23.638L16.2171 24.5581C15.9262 24.6828 15.7377 24.9688 15.7377 25.2852V29.0117C15.7377 29.0117 6.02575 29.0166 5.93504 29.026C5.67749 28.0308 5.21575 27.0922 4.57998 26.2819L3.0529 24.3355C2.64094 23.8103 2.41397 23.1537 2.41397 22.4863V19.1211C2.41397 18.6841 2.0598 18.3301 1.62295 18.3301C1.1861 18.3301 0.831937 18.6841 0.831937 19.1211V22.4863C0.831937 23.5062 1.17861 24.5097 1.80816 25.3121L3.33524 27.2585C3.88547 27.9598 4.26874 28.7835 4.45658 29.6539C4.39024 29.7096 4.32622 29.7684 4.26526 29.8305C3.76239 30.3428 3.49281 31.0125 3.50599 31.7164C3.51295 32.0883 3.59796 32.4423 3.7452 32.7626C3.15025 32.8438 2.58757 33.1233 2.162 33.5569C1.65913 34.0692 1.38955 34.7389 1.40273 35.4428C1.41075 35.8722 1.52286 36.2776 1.7145 36.6351C1.36698 36.7664 1.04815 36.9714 0.777516 37.2421C0.276117 37.7432 0 38.4096 0 39.1187C0 40.0386 0.470391 40.8507 1.18325 41.327C0.888996 41.7452 0.711703 42.2507 0.701578 42.7946C0.688395 43.4985 0.958078 44.1681 1.46085 44.6806C1.97153 45.201 2.67986 45.4994 3.40411 45.4994H4.59063V50.7424C4.59063 51.1794 4.9448 51.5334 5.38165 51.5334C5.8185 51.5334 6.17266 51.1794 6.17266 50.7424V45.4994H15.7373V50.7424C15.7373 51.1794 16.0915 51.5334 16.5283 51.5334C16.9652 51.5334 17.3193 51.1794 17.3193 50.7424V49.6014L21.11 48.8464C22.0357 48.662 22.8104 48.0341 23.1821 47.1666L23.8967 45.4994H36.6805V46.6859C36.6805 47.4102 36.9789 48.1186 37.4992 48.6292C38.0115 49.1321 38.6835 49.403 39.3851 49.3885C39.929 49.3783 40.4346 49.2011 40.8528 48.9068C41.3292 49.6197 42.1412 50.0901 43.0611 50.0901C44.1941 50.0901 45.1637 49.3764 45.5438 48.3751C45.9015 48.567 46.3073 48.6795 46.7371 48.6875C47.4411 48.6999 48.1105 48.4311 48.6229 47.9284C49.0566 47.5028 49.3361 46.9401 49.4173 46.345C49.7377 46.4922 50.0916 46.5774 50.4636 46.5844C51.1684 46.597 51.8372 46.3279 52.3494 45.8251C52.8698 45.3145 53.1683 44.606 53.1683 43.8817V29.5137C53.1683 28.4938 52.8216 27.4902 52.1921 26.6878L50.665 24.7414C50.1147 24.0402 49.7315 23.2164 49.5436 22.3461C49.61 22.2904 49.6739 22.2317 49.735 22.1696C50.2378 21.6572 50.5074 20.9875 50.4942 20.2836C50.4873 19.9117 50.4023 19.5576 50.255 19.2373C50.85 19.1561 51.4126 18.8766 51.8382 18.443C52.3411 17.9308 52.6107 17.261 52.5975 16.5571C52.5895 16.1274 52.477 15.7215 52.2851 15.3639C53.2864 14.9838 54 14.0142 54 12.8811ZM17.3194 25.8065L18.9866 25.092C19.8541 24.7203 20.482 23.9457 20.6665 23.02L21.4214 19.2293H25.0166C26.3285 19.2293 27.6194 19.6753 28.6515 20.4849L30.598 22.012C31.4004 22.6416 32.404 22.9883 33.4238 22.9883H36.6806V26.1932L35.0134 26.9079C34.1459 27.2795 33.518 28.0542 33.3335 28.9799L32.5786 32.7705H28.9834C27.6716 32.7705 26.3807 32.3245 25.3485 31.5148L23.402 29.9878C22.5996 29.3581 21.596 29.0114 20.5762 29.0114H17.3194V25.8065ZM49.4203 25.7181L50.9474 27.6645C51.3594 28.1896 51.5863 28.8463 51.5863 29.5137V43.8816C51.5863 44.184 51.4606 44.4808 51.2414 44.696C51.0346 44.8988 50.7681 45.0067 50.4934 45.0025C49.9135 44.9915 49.4419 44.5107 49.4419 43.9305C49.4419 43.8763 49.4419 35.9821 49.4419 35.9821C49.4419 35.5451 49.0877 35.1911 48.6508 35.1911C48.214 35.1911 47.8598 35.5451 47.8598 35.9821V45.9848C47.8598 46.2872 47.7341 46.5841 47.5148 46.7993C47.3082 47.0021 47.0426 47.1142 46.7667 47.1056C46.187 47.0948 45.7153 46.6139 45.7153 46.0338C45.7153 45.9796 45.7153 35.9821 45.7153 35.9821C45.7153 35.5451 45.3612 35.1911 44.9243 35.1911C44.4875 35.1911 44.1333 35.5451 44.1333 35.9821V47.4359C44.1333 48.027 43.6523 48.5081 43.061 48.5081C42.4698 48.5081 41.9888 48.027 41.9888 47.4359V35.9821C41.9888 35.5451 41.6346 35.1911 41.1978 35.1911C40.7609 35.1911 40.4068 35.5451 40.4068 35.9821V46.7347C40.4068 47.315 39.9351 47.7959 39.3553 47.8067C39.08 47.8114 38.814 47.703 38.6073 47.5002C38.3881 47.285 38.2624 46.9883 38.2624 46.6859V39.6086C38.2624 39.1717 37.9082 38.8176 37.4714 38.8176C37.0345 38.8176 36.6803 39.1717 36.6803 39.6086V43.9173H23.3752C23.0588 43.9173 22.7729 44.1059 22.6481 44.3967L21.728 46.5434C21.5617 46.9314 21.2151 47.2124 20.801 47.2949L17.3192 47.9883V45.4994H18.2597C18.6966 45.4994 19.0507 45.1453 19.0507 44.7083C19.0507 44.2714 18.6966 43.9173 18.2597 43.9173H3.40411C3.10173 43.9173 2.80505 43.7917 2.58989 43.5724C2.38697 43.3656 2.27813 43.1 2.28329 42.8242C2.29416 42.2445 2.77509 41.7728 3.35528 41.7728H14.1079C14.5448 41.7728 14.8989 41.4188 14.8989 40.9818C14.8989 40.5449 14.5448 40.1908 14.1079 40.1908H2.65423C2.06307 40.1908 1.58203 39.7098 1.58203 39.1186C1.58203 38.8321 1.69362 38.5629 1.89612 38.3604C2.09862 38.158 2.36777 38.0464 2.65423 38.0464H14.108C14.5449 38.0464 14.899 37.6923 14.899 37.2554C14.899 36.8184 14.5449 36.4644 14.108 36.4644C14.108 36.4644 4.11064 36.4644 4.05643 36.4644C3.47625 36.4644 2.99531 35.9926 2.98445 35.4129C2.97928 35.1372 3.08812 34.8715 3.29105 34.6648C3.5062 34.4456 3.80299 34.3198 4.10527 34.3198H14.108C14.5449 34.3198 14.899 33.9657 14.899 33.5288C14.899 33.0918 14.5449 32.7377 14.108 32.7377C14.108 32.7377 6.2138 32.7377 6.15959 32.7377C5.5794 32.7377 5.09846 32.2661 5.0876 31.6863C5.08243 31.4106 5.19128 31.145 5.3942 30.9382C5.60936 30.719 5.90614 30.5932 6.20842 30.5932H20.5763C21.2437 30.5932 21.9005 30.8201 22.4256 31.2322L24.372 32.7593C25.6815 33.7866 27.3193 34.3524 28.9836 34.3524H36.6807V36.1289C36.6807 36.5658 37.0348 36.9199 37.4717 36.9199C37.9085 36.9199 38.2627 36.5658 38.2627 36.1289V30.9751C38.2627 30.5382 37.9085 30.1841 37.4717 30.1841C37.0348 30.1841 36.6807 30.5382 36.6807 30.9751V32.7703H34.1918L34.8853 29.2886C34.9677 28.8744 35.2487 28.528 35.6368 28.3616L37.7834 27.4414C38.0742 27.3166 38.2628 27.0307 38.2628 26.7143V22.9879C38.2628 22.9879 47.9748 22.983 48.0655 22.9737C48.3228 23.9692 48.7847 24.9077 49.4203 25.7181Z" fill="#236A8D"/>
</svg>
