<svg width="56" height="59" viewBox="0 0 56 59" fill="none" xmlns="http://www.w3.org/2000/svg">
<g clip-path="url(#clip0_957_3498)">
<path d="M53.4247 0.859863H2.57534C1.15529 0.859863 0 2.05641 0 3.52718V22.6844C0 23.1547 0.36789 23.5357 0.821918 23.5357C1.27595 23.5357 1.64384 23.1547 1.64384 22.6844V7.10252H45.1293C45.5833 7.10252 45.9512 6.7215 45.9512 6.25125C45.9512 5.78101 45.5833 5.39998 45.1293 5.39998H1.64384V3.52718C1.64384 2.99519 2.0617 2.56241 2.57534 2.56241H53.4247C53.9383 2.56241 54.3562 2.99519 54.3562 3.52718V5.39998H49.1173C48.6632 5.39998 48.2953 5.78101 48.2953 6.25125C48.2953 6.7215 48.6632 7.10252 49.1173 7.10252H54.3562V38.9968H1.64384V26.6038C1.64384 26.1336 1.27595 25.7525 0.821918 25.7525C0.36789 25.7525 0 26.1336 0 26.6038V43.4802C0 44.951 1.15529 46.1475 2.57534 46.1475H21.9178V52.0784L17.9334 54.5545C17.6857 54.7083 17.5342 54.9854 17.5342 55.2845V58.0086C17.5342 58.4788 17.9021 58.8599 18.3562 58.8599H37.6438C38.0979 58.8599 38.4658 58.4788 38.4658 58.0086V55.2845C38.4658 54.9854 38.3143 54.7084 38.0666 54.5545L34.0822 52.0784V46.1475H53.4247C54.8447 46.1475 56 44.951 56 43.4802V3.52718C56 2.05641 54.8447 0.859863 53.4247 0.859863ZM36.8219 57.1573H19.1781V55.7665L22.6702 53.5964C23.4847 54.2033 25.2648 55.2278 28 55.2278C30.7352 55.2278 32.5153 54.2033 33.3298 53.5964L36.8219 55.7665V57.1573ZM32.4384 52.1656C31.8902 52.5954 30.4244 53.5252 28 53.5252C25.5723 53.5252 24.106 52.593 23.5616 52.1659V46.1475H32.4384V52.1656ZM54.3562 43.4802C54.3562 44.0122 53.9383 44.445 53.4247 44.445H2.57534C2.0617 44.445 1.64384 44.0122 1.64384 43.4802V40.6994H54.3562V43.4802Z" fill="#236A8D"/>
<path d="M43.7808 37.0673C44.2348 37.0673 44.6027 36.6863 44.6027 36.2161V9.88338C44.6027 9.41313 44.2348 9.0321 43.7808 9.0321H12.2191C11.7651 9.0321 11.3972 9.41313 11.3972 9.88338V36.2161C11.3972 36.6863 11.7651 37.0673 12.2191 37.0673H43.7808ZM13.0411 35.3648V16.1828H42.9589V35.3648H13.0411ZM13.0411 10.7346H42.9589V14.4802H13.0411V10.7346Z" fill="#236A8D"/>
<path d="M40.2739 13.5154C40.7581 13.5154 41.1506 13.1089 41.1506 12.6074C41.1506 12.1059 40.7581 11.6994 40.2739 11.6994C39.7897 11.6994 39.3972 12.1059 39.3972 12.6074C39.3972 13.1089 39.7897 13.5154 40.2739 13.5154Z" fill="#236A8D"/>
<path d="M36.7671 13.5154C37.2513 13.5154 37.6438 13.1089 37.6438 12.6074C37.6438 12.1059 37.2513 11.6994 36.7671 11.6994C36.2829 11.6994 35.8904 12.1059 35.8904 12.6074C35.8904 13.1089 36.2829 13.5154 36.7671 13.5154Z" fill="#236A8D"/>
<path d="M33.2603 13.5154C33.7445 13.5154 34.137 13.1089 34.137 12.6074C34.137 12.1059 33.7445 11.6994 33.2603 11.6994C32.7761 11.6994 32.3835 12.1059 32.3835 12.6074C32.3835 13.1089 32.7761 13.5154 33.2603 13.5154Z" fill="#236A8D"/>
<path d="M21.5676 21.0856C21.2465 20.7533 20.7262 20.7533 20.4052 21.0856L16.8983 24.7177C16.5773 25.0503 16.5773 25.5892 16.8983 25.9216L20.4052 29.5537C20.7395 29.8998 21.3039 29.8768 21.6113 29.5048C21.8867 29.1716 21.8669 28.6597 21.5677 28.3497L18.6418 25.3197L21.5675 22.2897C21.8885 21.9571 21.8885 21.4182 21.5676 21.0856Z" fill="#236A8D"/>
<path d="M35.5949 21.0856C35.2738 20.7533 34.7535 20.7533 34.4325 21.0856C34.1115 21.4182 34.1115 21.9571 34.4325 22.2895L37.3582 25.3196L34.4325 28.3497C34.1333 28.6597 34.1134 29.1716 34.3889 29.5048C34.6962 29.8766 35.2607 29.8997 35.595 29.5537L39.1019 25.9216C39.4229 25.5891 39.4229 25.0502 39.1019 24.7177L35.5949 21.0856Z" fill="#236A8D"/>
<path d="M30.9256 21.0856L23.9119 28.3498C23.6127 28.6598 23.5928 29.1717 23.8683 29.5049C24.1756 29.8768 24.7401 29.8998 25.0744 29.5539L32.0881 22.2897C32.4091 21.9571 32.4091 21.4182 32.0881 21.0858C31.767 20.7534 31.2467 20.7534 30.9256 21.0856Z" fill="#236A8D"/>
</g>
<defs>
<clipPath id="clip0_957_3498">
<rect width="56" height="58" fill="white" transform="translate(0 0.859863)"/>
</clipPath>
</defs>
</svg>
