<svg width="56" height="57" viewBox="0 0 56 57" fill="none" xmlns="http://www.w3.org/2000/svg">
<g clip-path="url(#clip0_957_3517)">
<path d="M47.7991 9.0608C42.5105 3.77241 35.4791 0.859863 28 0.859863C20.5209 0.859863 13.4895 3.77241 8.20094 9.0608C2.91255 14.3494 0 21.3808 0 28.8599C0 36.3389 2.91255 43.3703 8.20094 48.6589C13.4895 53.9473 20.5209 56.8599 28 56.8599C35.4791 56.8599 42.5105 53.9473 47.7991 48.6589C53.0875 43.3703 56 36.3389 56 28.8599C56 21.3808 53.0875 14.3494 47.7991 9.0608ZM48.5955 12.4066C52.1607 16.8518 54.1707 22.2872 54.3454 28.0396H49.8626V22.7791C49.8626 20.8452 48.2893 19.2719 46.3554 19.2719H41.9631C41.6779 17.7788 41.3291 16.337 40.9153 14.9615C43.5305 14.3108 46.094 13.4583 48.5955 12.4066ZM28.8205 2.55386C31.8148 2.93197 34.6668 5.3706 36.9268 9.5193C37.1434 9.9171 37.6415 10.0639 38.0395 9.84721C38.4373 9.63054 38.5842 9.13233 38.3675 8.73443C37.0799 6.37061 35.5936 4.50183 33.9776 3.17872C38.7345 4.27641 43.1011 6.68321 46.6389 10.2209C46.9249 10.507 47.2026 10.799 47.4738 11.0955C45.1684 12.0371 42.8096 12.8056 40.4056 13.3977C40.2609 12.9828 40.1124 12.572 39.9557 12.1709C39.7908 11.7489 39.315 11.5403 38.8931 11.7054C38.4711 11.8702 38.2627 12.346 38.4276 12.768C38.5555 13.0951 38.678 13.4287 38.7975 13.7658C35.5424 14.4564 32.2097 14.8298 28.8205 14.8811V2.55386ZM28.8203 16.5221C32.3859 16.4698 35.8912 16.0722 39.3133 15.3339C39.6954 16.5916 40.0235 17.9069 40.2941 19.2719H28.8203V16.5221ZM27.1797 2.55277V14.881C23.7922 14.8286 20.4614 14.4545 17.2081 13.7634C18.0854 11.2921 19.1746 9.10455 20.4224 7.34493C22.442 4.49658 24.763 2.85596 27.1797 2.55277ZM27.1797 16.5218V19.2719H15.7059C15.9771 17.9087 16.3081 16.59 16.6917 15.3313C20.1121 16.07 23.6158 16.4683 27.1797 16.5218ZM9.36119 10.2211C12.8975 6.68463 17.2621 4.27827 22.0172 3.18004C20.984 4.02846 20.0011 5.10263 19.0842 6.39577C17.6995 8.34855 16.523 10.7124 15.5898 13.3923C13.1891 12.7997 10.8336 12.0315 8.53125 11.0904C8.80086 10.7956 9.07692 10.5053 9.36119 10.2211ZM7.40884 12.401C9.90861 13.4529 12.4703 14.3056 15.0834 14.9568C14.6722 16.3271 14.3212 17.7691 14.0347 19.2719H9.64458C7.71072 19.2719 6.13736 20.8452 6.13736 22.7791V28.0396H1.65452C1.8293 22.2848 3.84081 16.8473 7.40884 12.401ZM7.40644 45.316C3.84005 40.8702 1.8293 35.4337 1.65452 29.6802H6.13725V34.9407C6.13725 36.8745 7.71061 38.4478 9.64447 38.4478H14.0367C14.3221 39.9416 14.671 41.3843 15.0849 42.7603C12.4704 43.4114 9.90752 44.264 7.40644 45.316ZM27.1796 55.1659C24.1874 54.788 21.3369 52.3521 19.0777 48.2084C18.861 47.8106 18.3626 47.6639 17.9648 47.8808C17.567 48.0977 17.4204 48.5959 17.6373 48.9937C18.9238 51.3536 20.4086 53.2195 22.0229 54.5411C17.2656 53.4434 12.8989 51.0365 9.36108 47.4988C9.07594 47.2136 8.79911 46.9225 8.52873 46.6269C10.8336 45.685 13.1917 44.9165 15.595 44.324C15.7361 44.7285 15.8808 45.1291 16.0333 45.5203C16.1597 45.8446 16.4696 46.0429 16.7978 46.0429C16.8969 46.0429 16.9976 46.0248 17.0955 45.9867C17.5176 45.8222 17.7265 45.3466 17.562 44.9245C17.4381 44.6067 17.3192 44.2828 17.203 43.9556C20.458 43.2644 23.7905 42.8905 27.1796 42.8386V55.1659ZM27.1797 41.1978C23.6143 41.2507 20.1092 41.6488 16.6875 42.3875C16.3051 41.1293 15.9766 39.8133 15.7059 38.4478H27.1797V41.1978ZM9.64458 36.8072C8.61536 36.8072 7.77798 35.9699 7.77798 34.9407V22.7791C7.77798 21.7498 8.61536 20.9126 9.64458 20.9126H46.3555C47.3848 20.9126 48.2221 21.7498 48.2221 22.7791V34.9407H48.222C48.222 35.9699 47.3846 36.8072 46.3554 36.8072H9.64458ZM40.2942 38.4478C40.0232 39.8105 39.6923 41.1286 39.3089 42.3867C35.8882 41.6484 32.3844 41.2507 28.8203 41.1978V38.4478H40.2942ZM28.8203 55.167V42.8386C32.208 42.8905 35.539 43.2641 38.7926 43.9547C37.9152 46.4268 36.8257 48.6148 35.5776 50.3749C33.558 53.2231 31.237 54.8638 28.8203 55.167ZM46.6389 47.4987C43.1025 51.0351 38.7379 53.4415 33.9828 54.5397C35.016 53.6913 35.9989 52.6171 36.9159 51.3238C38.3009 49.3706 39.4777 47.0061 40.411 44.3254C42.8122 44.9178 45.1684 45.6858 47.4713 46.6267C47.2009 46.9224 46.9241 47.2135 46.6389 47.4987ZM48.5933 45.316C46.0931 44.2643 43.5309 43.4119 40.9172 42.7609C41.3281 41.3912 41.6788 39.9498 41.9653 38.4478H46.3554C48.2893 38.4478 49.8626 36.8745 49.8626 34.9407V29.6802H54.3454C54.1707 35.4337 52.16 40.8702 48.5933 45.316Z" fill="#236A8D"/>
<path d="M25.8628 31.5467H21.4225V29.6802H25.2052C25.6582 29.6802 26.0255 29.3129 26.0255 28.8599C26.0255 28.4069 25.6582 28.0396 25.2052 28.0396H21.4225V26.1732H25.8628C26.3158 26.1732 26.6831 25.8059 26.6831 25.3529C26.6831 24.8999 26.3158 24.5326 25.8628 24.5326H20.6022C20.1491 24.5326 19.7819 24.8999 19.7819 25.3529V32.367C19.7819 32.82 20.1491 33.1873 20.6022 33.1873H25.8628C26.3158 33.1873 26.6831 32.82 26.6831 32.367C26.6831 31.914 26.3158 31.5467 25.8628 31.5467Z" fill="#236A8D"/>
<path d="M17.3144 24.5326C16.8614 24.5326 16.4941 24.8999 16.4941 25.3529V29.9061L12.7101 24.8607C12.4982 24.5782 12.1292 24.4631 11.7944 24.5747C11.4595 24.6864 11.2335 24.9999 11.2335 25.3529V32.367C11.2335 32.8201 11.6008 33.1873 12.0538 33.1873C12.5069 33.1873 12.8741 32.8201 12.8741 32.367V27.8139L16.6582 32.8592C16.8161 33.0698 17.0612 33.1873 17.3146 33.1873C17.4011 33.1873 17.4886 33.1737 17.5739 33.1452C17.9088 33.0336 18.1348 32.7201 18.1348 32.367V25.3529C18.1348 24.8998 17.7675 24.5326 17.3144 24.5326Z" fill="#236A8D"/>
<path d="M36.798 24.5631C36.3619 24.4405 35.9088 24.6945 35.7862 25.1307L34.6032 29.337L33.4201 25.1307C33.3206 24.7769 32.9979 24.5324 32.6304 24.5324C32.2629 24.5324 31.9403 24.7769 31.8408 25.1307L30.6578 29.337L29.4748 25.1307C29.3521 24.6945 28.8994 24.4403 28.463 24.5631C28.027 24.6857 27.7728 25.1388 27.8955 25.5749L29.8682 32.589C29.9677 32.9428 30.2904 33.1873 30.6579 33.1873C31.0254 33.1873 31.348 32.9428 31.4476 32.589L32.6306 28.3826L33.8137 32.589C33.9132 32.9428 34.2358 33.1873 34.6033 33.1873C34.9708 33.1873 35.2935 32.9428 35.393 32.589L37.3657 25.5749C37.4882 25.1388 37.2341 24.6857 36.798 24.5631Z" fill="#236A8D"/>
<path d="M42.0834 28.0696C40.3859 27.598 40.0538 27.279 40.0538 26.8872C40.0538 26.6691 40.7375 26.1732 41.8638 26.1732C42.9899 26.1732 43.6737 26.6691 43.6737 26.8872C43.6737 27.3402 44.041 27.7075 44.494 27.7075C44.9471 27.7075 45.3143 27.3402 45.3143 26.8872C45.3143 25.5449 43.8309 24.5326 41.8638 24.5326C39.8967 24.5326 38.4132 25.5449 38.4132 26.8872C38.4132 28.7528 40.3576 29.2929 41.6443 29.6504C43.3418 30.1219 43.6738 30.4409 43.6738 30.8327C43.6738 31.0508 42.99 31.5467 41.8639 31.5467C40.7378 31.5467 40.0539 31.0508 40.0539 30.8327C40.0539 30.3797 39.6867 30.0124 39.2336 30.0124C38.7806 30.0124 38.4133 30.3797 38.4133 30.8327C38.4133 32.1751 39.8968 33.1873 41.8639 33.1873C43.831 33.1873 45.3144 32.1751 45.3144 30.8327C45.3144 28.9671 43.3701 28.427 42.0834 28.0696Z" fill="#236A8D"/>
</g>
<defs>
<clipPath id="clip0_957_3517">
<rect width="56" height="56" fill="white" transform="translate(0 0.859863)"/>
</clipPath>
</defs>
</svg>
