<svg width="25" height="25" viewBox="0 0 25 25" fill="none" xmlns="http://www.w3.org/2000/svg">
<path d="M15.3297 11.9772L11.0897 7.7372C10.9967 7.64348 10.8861 7.56908 10.7643 7.51831C10.6424 7.46754 10.5117 7.44141 10.3797 7.44141C10.2477 7.44141 10.117 7.46754 9.99512 7.51831C9.87326 7.56908 9.76266 7.64348 9.6697 7.7372C9.48345 7.92457 9.37891 8.17802 9.37891 8.4422C9.37891 8.70639 9.48345 8.95984 9.6697 9.1472L13.2097 12.6872L9.6697 16.2272C9.48345 16.4146 9.37891 16.668 9.37891 16.9322C9.37891 17.1964 9.48345 17.4498 9.6697 17.6372C9.76314 17.7299 9.87395 17.8032 9.99579 17.853C10.1176 17.9027 10.2481 17.928 10.3797 17.9272C10.5113 17.928 10.6418 17.9027 10.7636 17.853C10.8854 17.8032 10.9963 17.7299 11.0897 17.6372L15.3297 13.3972C15.4234 13.3042 15.4978 13.1936 15.5486 13.0718C15.5994 12.9499 15.6255 12.8192 15.6255 12.6872C15.6255 12.5552 15.5994 12.4245 15.5486 12.3026C15.4978 12.1808 15.4234 12.0702 15.3297 11.9772Z" fill="#E6EDF8"/>
</svg>
