<svg width="54" height="54" viewBox="0 0 54 54" fill="none" xmlns="http://www.w3.org/2000/svg">
<path d="M45.2525 48.191H43.156V28.3293C43.156 27.8925 42.8018 27.5383 42.365 27.5383C41.928 27.5383 41.5739 27.8925 41.5739 28.3293V48.191H36.2556V17.0625H41.5739V24.6624C41.5739 25.0992 41.9281 25.4534 42.365 25.4534C42.8019 25.4534 43.156 25.0992 43.156 24.6624V16.6272C43.156 15.9949 42.6416 15.4805 42.0093 15.4805H35.8202C35.1879 15.4805 34.6735 15.9949 34.6735 16.6272V48.1911H30.0444V23.7425C30.0444 23.1102 29.53 22.5957 28.8978 22.5957H22.7086C22.0764 22.5957 21.562 23.1102 21.562 23.7425V48.191H16.9329V32.0185C16.9329 31.3862 16.4184 30.8717 15.7861 30.8717H9.59698C8.96469 30.8717 8.45022 31.3862 8.45022 32.0185V48.191H6.35371C4.88896 48.191 3.69727 49.3827 3.69727 50.8474V52.1006C3.69727 53.1478 4.54924 53.9999 5.59655 53.9999H17.044C17.4809 53.9999 17.835 53.6457 17.835 53.2089C17.835 52.772 17.4809 52.4178 17.044 52.4178H5.59655C5.42168 52.4178 5.2794 52.2756 5.2794 52.1007V50.8474C5.2794 50.255 5.76139 49.773 6.35381 49.773H45.2526C45.845 49.773 46.327 50.255 46.327 50.8474V52.1006C46.327 52.2755 46.1847 52.4177 46.0098 52.4177H20.7005C20.2637 52.4177 19.9095 52.7719 19.9095 53.2087C19.9095 53.6456 20.2637 53.9998 20.7005 53.9998H46.0098C47.057 53.9998 47.909 53.1478 47.909 52.1005V50.8474C47.9089 49.3827 46.7172 48.191 45.2525 48.191ZM10.0324 48.191V32.4539H15.3507V48.191H10.0324ZM23.1439 48.191V24.1778H28.4623V48.191H23.1439Z" fill="#236A8D"/>
<path d="M34.6358 8.62977L34.1042 11.729C34.0137 12.2572 34.2268 12.7809 34.6604 13.0959C35.0939 13.4109 35.658 13.4516 36.1323 13.2024L38.9154 11.7392L41.6986 13.2024C41.9049 13.3108 42.1282 13.3644 42.3504 13.3644C42.6389 13.3644 42.9256 13.2739 43.1706 13.0959C43.6041 12.7809 43.8173 12.2572 43.7266 11.729L43.1951 8.62977L45.4468 6.43486C45.8306 6.06076 45.966 5.51169 45.8004 5.00207C45.6348 4.49244 45.2025 4.12805 44.6721 4.05095L41.5602 3.5988L40.1688 0.779098C39.9317 0.298582 39.4515 0 38.9156 0H38.9155C38.3796 0 37.8993 0.298477 37.6621 0.779098L36.2706 3.5988L33.1586 4.05095C32.6284 4.12794 32.1961 4.49244 32.0304 5.00207C31.8648 5.5118 32.0002 6.06076 32.384 6.43486L34.6358 8.62977ZM36.5941 5.15046C37.0494 5.08423 37.4427 4.79841 37.6464 4.38592L38.9154 1.81438L40.1845 4.38592C40.3882 4.79841 40.7814 5.08423 41.237 5.15046L44.0749 5.56284L42.0213 7.56454C41.6919 7.88579 41.5416 8.34827 41.6194 8.80168L42.1041 11.6281L39.5657 10.2936C39.1585 10.0796 38.6722 10.0796 38.2651 10.2936L35.7268 11.6281L36.2115 8.80179C36.2893 8.34838 36.139 7.88579 35.8095 7.56454L33.756 5.56284L36.5941 5.15046Z" fill="#236A8D"/>
<path d="M28.3184 7.47314H29.6436C30.0805 7.47314 30.4346 7.11898 30.4346 6.68213C30.4346 6.24528 30.0804 5.89111 29.6436 5.89111H28.3184C27.8814 5.89111 27.5273 6.24528 27.5273 6.68213C27.5273 7.11898 27.8815 7.47314 28.3184 7.47314Z" fill="#236A8D"/>
<path d="M30.3578 9.53916L29.2101 10.2017C28.8318 10.4201 28.7021 10.9039 28.9206 11.2822C29.0671 11.536 29.333 11.678 29.6064 11.678C29.7405 11.678 29.8766 11.6438 30.0011 11.5719L31.1488 10.9093C31.5272 10.6909 31.6569 10.2071 31.4384 9.82878C31.22 9.45036 30.7364 9.32084 30.3578 9.53916Z" fill="#236A8D"/>
<path d="M29.2101 3.0426L30.3578 3.70515C30.4825 3.77708 30.6184 3.81125 30.7526 3.81125C31.026 3.81125 31.2919 3.66929 31.4384 3.41564C31.6568 3.03722 31.5272 2.55343 31.1488 2.33511L30.0011 1.67256C29.6226 1.45403 29.1389 1.58375 28.9206 1.96207C28.7021 2.34039 28.8318 2.82417 29.2101 3.0426Z" fill="#236A8D"/>
<path d="M49.5128 5.89111H48.1875C47.7505 5.89111 47.3965 6.24528 47.3965 6.68213C47.3965 7.11898 47.7506 7.47314 48.1875 7.47314H49.5128C49.9498 7.47314 50.3038 7.11898 50.3038 6.68213C50.3038 6.24528 49.9497 5.89111 49.5128 5.89111Z" fill="#236A8D"/>
<path d="M48.6195 10.2018L47.4718 9.53921C47.0933 9.32079 46.6096 9.45041 46.3913 9.82872C46.1728 10.2071 46.3025 10.6909 46.6808 10.9092L47.8285 11.5718C47.9531 11.6437 48.0891 11.6779 48.2233 11.6779C48.4966 11.6779 48.7625 11.5359 48.909 11.2822C49.1274 10.904 48.9978 10.4202 48.6195 10.2018Z" fill="#236A8D"/>
<path d="M47.0771 3.81128C47.2112 3.81128 47.3473 3.7771 47.4718 3.70518L48.6195 3.04262C48.9979 2.82419 49.1276 2.34041 48.9091 1.96209C48.6907 1.58367 48.2071 1.45405 47.8285 1.67258L46.6808 2.33514C46.3025 2.55356 46.1728 3.03735 46.3913 3.41566C46.5378 3.66942 46.8037 3.81128 47.0771 3.81128Z" fill="#236A8D"/>
</svg>
