<svg width="41" height="40" viewBox="0 0 41 40" fill="none" xmlns="http://www.w3.org/2000/svg">
<g clip-path="url(#clip0_3423_1780)">
<path d="M0.5 22.1094H10.9688V25.1633C10.9688 26.908 9.54938 28.3273 7.80469 28.3273H3.78125V36.1398H7.80469C13.8572 36.1398 18.7812 31.2158 18.7812 25.1633V3.82812H0.5V22.1094ZM2.84375 6.17188H16.4375V25.1633C16.4375 29.9234 12.5648 33.7961 7.80469 33.7961H6.125V30.6711H7.80469C10.8418 30.6711 13.3125 28.2004 13.3125 25.1633V19.7656H2.84375V6.17188Z" fill="#236A8D"/>
<path d="M22.2188 3.82813V22.1094H32.6875V25.1633C32.6875 26.908 31.2681 28.3273 29.5234 28.3273H25.5V36.1398H29.5234C35.576 36.1398 40.5 31.2158 40.5 25.1633V3.82812L22.2188 3.82813ZM38.1562 25.1633C38.1562 29.9234 34.2836 33.7961 29.5234 33.7961H27.8438V30.6711H29.5234C32.5605 30.6711 35.0312 28.2004 35.0312 25.1633V19.7656H24.5625V6.17188H38.1562V25.1633Z" fill="#236A8D"/>
</g>
<defs>
<clipPath id="clip0_3423_1780">
<rect width="40" height="40" fill="white" transform="translate(0.5)"/>
</clipPath>
</defs>
</svg>
