<svg width="129" height="118" viewBox="0 0 129 118" fill="none" xmlns="http://www.w3.org/2000/svg">
<path d="M11.625 91.9575C10.5892 91.9575 9.75 92.7968 9.75 93.8325C9.75 94.8683 10.5892 95.7075 11.625 95.7075H25.5343C26.57 95.7075 27.4093 94.8683 27.4093 93.8325C27.4093 92.7968 26.57 91.9575 25.5343 91.9575H11.625Z" fill="#236A8D"/>
<path d="M39 87.395C39 86.3593 38.1607 85.52 37.125 85.52H11.625C10.5892 85.52 9.75 86.3593 9.75 87.395C9.75 88.4308 10.5892 89.27 11.625 89.27H37.125C38.1607 89.27 39 88.4305 39 87.395Z" fill="#236A8D"/>
<path d="M37.125 79.0825H11.625C10.5892 79.0825 9.75 79.9218 9.75 80.9575C9.75 81.9933 10.5892 82.8325 11.625 82.8325H37.125C38.1607 82.8325 39 81.9933 39 80.9575C39 79.9218 38.1607 79.0825 37.125 79.0825Z" fill="#236A8D"/>
<path d="M37.125 72.645H11.625C10.5892 72.645 9.75 73.4843 9.75 74.52C9.75 75.5558 10.5892 76.395 11.625 76.395H37.125C38.1607 76.395 39 75.5558 39 74.52C39 73.4843 38.1607 72.645 37.125 72.645Z" fill="#236A8D"/>
<path d="M73.7598 36.6946C76.8613 36.6946 79.3848 34.1711 79.3848 31.0696C79.3848 27.9681 76.8613 25.4446 73.7598 25.4446C70.6583 25.4446 68.1348 27.9681 68.1348 31.0696C68.1348 34.1711 70.6583 36.6946 73.7598 36.6946ZM73.7598 29.1946C74.7938 29.1946 75.6348 30.0356 75.6348 31.0696C75.6348 32.1036 74.7938 32.9446 73.7598 32.9446C72.7258 32.9446 71.8848 32.1036 71.8848 31.0696C71.8848 30.0356 72.7258 29.1946 73.7598 29.1946Z" fill="#236A8D"/>
<path d="M98.25 30.5776H119.431C121.155 30.5776 122.556 29.1759 122.556 27.4526V12.9526C122.556 11.2294 121.155 9.82764 119.431 9.82764H98.25C96.5267 9.82764 95.125 11.2294 95.125 12.9526V27.4526C95.125 29.1759 96.5267 30.5776 98.25 30.5776ZM100.423 26.8276L103.498 21.5014L106.573 26.8276H100.423ZM111.053 26.8276L113.248 23.0259L115.443 26.8276H111.053ZM112.273 21.3381C112.274 21.3381 112.274 21.3384 112.273 21.3381L112.275 21.3409C112.275 21.3399 112.274 21.3391 112.273 21.3381ZM98.875 13.5776H118.806V25.1529L115.521 19.4634C115.054 18.6541 114.183 18.1511 113.248 18.1509C113.248 18.1509 113.248 18.1509 113.248 18.1509C112.313 18.1509 111.442 18.6536 110.975 19.4634L108.813 23.2076L105.771 17.9394C105.304 17.1299 104.433 16.6269 103.498 16.6266C103.498 16.6266 103.498 16.6266 103.498 16.6266C102.564 16.6266 101.692 17.1294 101.225 17.9391L98.875 22.0089V13.5776Z" fill="#236A8D"/>
<path d="M126.56 106.361L108.609 88.411C111.277 84.0793 112.818 78.9833 112.818 73.5335C112.818 60.6733 104.242 49.7805 92.5098 46.268V15.6658C92.5098 13.9425 91.108 12.5408 89.3848 12.5408H43.5503V3.45752C43.5503 1.73427 42.1485 0.33252 40.4253 0.33252H9.5C7.77675 0.33252 6.375 1.73427 6.375 3.45752V24.9525C6.375 26.6758 7.77675 28.0775 9.5 28.0775H17.375V52.3375H3.625C1.90175 52.3375 0.5 53.7393 0.5 55.4625V106.453C0.5 108.176 1.90175 109.578 3.625 109.578H45.125C46.8483 109.578 48.25 108.176 48.25 106.453V91.7515C48.25 90.7158 47.4108 89.8765 46.375 89.8765C45.3392 89.8765 44.5 90.7158 44.5 91.7515V105.828H4.25V56.0875H17.375V66.2073H11.625C10.5892 66.2073 9.75 67.0465 9.75 68.0823C9.75 69.118 10.5892 69.9573 11.625 69.9573H44.5V83.0015C44.5 84.0373 45.3392 84.8765 46.375 84.8765C47.4108 84.8765 48.25 84.0373 48.25 83.0015V69.9575H56.1325C55.9847 71.1293 55.907 72.3223 55.907 73.5335C55.907 89.2243 68.6723 101.989 84.3625 101.989C89.8125 101.989 94.9085 100.448 99.2402 97.7803L117.19 115.731C118.482 117.022 120.178 117.668 121.875 117.668C123.572 117.668 125.268 117.022 126.559 115.731C127.811 114.479 128.5 112.816 128.5 111.046C128.5 109.276 127.811 107.612 126.56 106.361ZM43.5503 24.9525V22.5408H68.5C69.5358 22.5408 70.375 21.7015 70.375 20.6658C70.375 19.63 69.5358 18.7908 68.5 18.7908H43.5503V16.2908H88.7598V45.4175C87.9375 45.2895 87.1035 45.198 86.2598 45.1423V21.4158C86.2598 19.9683 85.0823 18.7908 83.6348 18.7908H77.25C76.2142 18.7908 75.375 19.63 75.375 20.6658C75.375 21.7015 76.2142 22.5408 77.25 22.5408H82.5098V45.1423C80.1667 45.294 77.8988 45.7265 75.7428 46.4135L69.1448 37.516C68.5578 36.725 67.6195 36.2525 66.6348 36.2525C65.6497 36.2525 64.7115 36.725 64.1245 37.516L57.043 47.0655L46.284 32.5565C45.697 31.7655 44.7588 31.293 43.7738 31.293C42.789 31.293 41.8507 31.7655 41.2637 32.5565L27.375 51.2855V28.0775H40.4253C42.1485 28.0775 43.5503 26.6758 43.5503 24.9525ZM27.8748 22.194C29.8507 21.4783 32.0755 21.0775 34.375 21.0775C36.2355 21.0775 38.087 21.3365 39.8003 21.8325V24.3275H28.888C28.618 23.5885 28.2798 22.875 27.8748 22.194ZM10.125 4.08252H39.8003V17.959C38.0588 17.542 36.2438 17.3275 34.375 17.3275C31.1515 17.3275 28.0725 17.9728 25.409 19.1295C22.0828 15.964 17.103 13.9943 11.625 13.9943C11.1252 13.9943 10.6248 14.0148 10.125 14.049V4.08252ZM10.125 17.8043C10.624 17.7643 11.1252 17.7443 11.625 17.7443C17.502 17.7443 22.6263 20.4045 24.7875 24.3275H10.125V17.8043ZM21.125 66.2075V28.0775H23.625V61.0828C23.625 62.5303 24.8025 63.7078 26.25 63.7078H57.6562C57.355 64.524 57.0913 65.3583 56.8647 66.2075H21.125ZM27.375 59.9575V57.5815L43.7738 35.4675L55.537 51.3305C55.8907 51.8073 56.4492 52.0885 57.043 52.0885C57.6367 52.0885 58.1953 51.8073 58.549 51.3305L66.6348 40.427L72.1338 47.8425C66.709 50.4353 62.2278 54.6958 59.3595 59.9575H27.375ZM59.657 73.5333C59.657 59.9105 70.7398 48.8275 84.3625 48.8275C97.9853 48.8275 109.068 59.9105 109.068 73.5333C109.068 87.156 97.9853 98.239 84.3625 98.239C70.7398 98.239 59.657 87.1563 59.657 73.5333ZM123.908 113.079C122.787 114.2 120.963 114.2 119.842 113.079L102.339 95.575C103.826 94.3595 105.189 92.9968 106.405 91.5093L123.908 109.013C124.451 109.556 124.75 110.278 124.75 111.046C124.75 111.814 124.451 112.536 123.908 113.079Z" fill="#236A8D"/>
<path d="M103.316 76.4351C102.312 76.1796 101.291 76.7846 101.035 77.7879C99.0882 85.4136 92.2322 90.7394 84.363 90.7394C74.8757 90.7394 67.1572 83.0209 67.1572 73.5336C67.1572 64.0464 74.8757 56.3279 84.363 56.3279C92.408 56.3279 99.4797 62.0349 101.178 69.8979C101.397 70.9101 102.395 71.5536 103.407 71.3346C104.419 71.1159 105.062 70.1181 104.844 69.1059C102.775 59.5289 94.1615 52.5779 84.363 52.5779C72.8077 52.5779 63.4072 61.9786 63.4072 73.5336C63.4072 85.0886 72.808 94.4894 84.363 94.4894C93.9475 94.4894 102.297 88.0031 104.669 78.7156C104.925 77.7121 104.319 76.6911 103.316 76.4351Z" fill="#236A8D"/>
<path d="M29.625 16.0776C32.382 16.0776 34.625 13.8346 34.625 11.0776C34.625 8.32064 32.382 6.07764 29.625 6.07764C26.868 6.07764 24.625 8.32064 24.625 11.0776C24.625 13.8346 26.868 16.0776 29.625 16.0776ZM29.625 9.82764C30.3142 9.82764 30.875 10.3884 30.875 11.0776C30.875 11.7669 30.3142 12.3276 29.625 12.3276C28.9358 12.3276 28.375 11.7669 28.375 11.0776C28.375 10.3884 28.9358 9.82764 29.625 9.82764Z" fill="#236A8D"/>
</svg>
