<svg width="129" height="128" viewBox="0 0 129 128" fill="none" xmlns="http://www.w3.org/2000/svg">
<g clip-path="url(#clip0_3666_1908)">
<path d="M23.8911 13.8179C19.2276 13.8179 15.4336 17.6106 15.4336 22.2721C15.4336 26.9336 19.2276 30.7264 23.8911 30.7264C28.5583 30.7264 32.3556 26.9336 32.3556 22.2721C32.3556 17.6106 28.5583 13.8179 23.8911 13.8179ZM23.8911 25.6844C22.0078 25.6844 20.4758 24.1536 20.4758 22.2721C20.4758 20.3906 22.0078 18.8601 23.8911 18.8601C25.7781 18.8601 27.3136 20.3909 27.3136 22.2724C27.3136 24.1539 25.7781 25.6844 23.8911 25.6844Z" fill="#236A8D"/>
<path d="M97.8411 13.8179H75.4839C70.8204 13.8179 67.0264 17.6106 67.0264 22.2721C67.0264 26.9336 70.8204 30.7264 75.4839 30.7264H97.8411C102.505 30.7264 106.299 26.9336 106.299 22.2721C106.299 17.6106 102.505 13.8179 97.8411 13.8179ZM97.8411 25.6844H75.4839C73.6006 25.6844 72.0686 24.1536 72.0686 22.2721C72.0686 20.3906 73.6009 18.8599 75.4839 18.8599H97.8411C99.7244 18.8599 101.256 20.3906 101.256 22.2721C101.256 24.1536 99.7244 25.6844 97.8411 25.6844Z" fill="#236A8D"/>
<path d="M45.8091 13.8179C41.1456 13.8179 37.3516 17.6106 37.3516 22.2721C37.3516 26.9336 41.1456 30.7264 45.8091 30.7264C50.4763 30.7264 54.2736 26.9336 54.2736 22.2721C54.2736 17.6106 50.4763 13.8179 45.8091 13.8179ZM45.8091 25.6844C43.9258 25.6844 42.3938 24.1536 42.3938 22.2721C42.3938 20.3906 43.9261 18.8599 45.8091 18.8599C47.6961 18.8599 49.2316 20.3906 49.2316 22.2721C49.2316 24.1536 47.6961 25.6844 45.8091 25.6844Z" fill="#236A8D"/>
<path d="M41.698 55.6111C40.3442 55.2868 38.9835 56.1226 38.66 57.4771L33.6585 78.4066C33.335 79.7608 34.1702 81.1211 35.5245 81.4446C35.7215 81.4916 35.9187 81.5143 36.1127 81.5143C37.2525 81.5143 38.286 80.7358 38.5625 79.5786L43.564 58.6491C43.8877 57.2948 43.0522 55.9348 41.698 55.6111Z" fill="#236A8D"/>
<path d="M50.9538 78.9849C51.4343 79.4129 52.0333 79.6234 52.6298 79.6234C53.3241 79.6234 54.0153 79.3384 54.5136 78.7791L61.5831 70.8431C62.7496 69.5446 62.7496 67.5111 61.5903 66.2209L54.5133 58.2766C53.5868 57.2366 51.9931 57.1451 50.9538 58.0709C49.9138 58.9971 49.8218 60.5909 50.7481 61.6304L56.8923 68.5276L50.7481 75.4251C49.8221 76.4651 49.9141 78.0589 50.9538 78.9849Z" fill="#236A8D"/>
<path d="M26.2689 58.0711C25.2289 57.1448 23.6357 57.2376 22.7094 58.2768L15.6407 66.212C14.4727 67.5108 14.4727 69.5453 15.6327 70.8351L22.7097 78.7793C23.2079 79.3388 23.8989 79.6235 24.5934 79.6235C25.1899 79.6235 25.7892 79.4131 26.2694 78.9851C27.3094 78.0588 27.4014 76.465 26.4752 75.4256L20.3309 68.5283L26.4752 61.6308C27.4009 60.5908 27.3089 58.9971 26.2689 58.0711Z" fill="#236A8D"/>
<path d="M122.848 84.883H121.912C121.422 83.295 120.786 81.762 120.011 80.297L120.679 79.6268C121.746 78.5665 122.335 77.1508 122.337 75.6403C122.339 74.1263 121.753 72.7048 120.685 71.637L119.383 70.3363V16.6363C119.383 9.11652 114.076 2.99902 107.553 2.99902H12.3295C5.8065 2.99902 0.5 9.11652 0.5 16.6363V87.0995C0.5 94.6193 5.8065 100.737 12.3295 100.737H27.121C28.5133 100.737 29.642 99.608 29.642 98.2158C29.642 96.8235 28.5133 95.6948 27.121 95.6948H12.3295C8.6505 95.6948 5.54225 91.7585 5.54225 87.0998V41.3613H114.34V66.8375C114.053 66.7933 113.762 66.7643 113.466 66.7643C113.463 66.7643 113.46 66.7643 113.457 66.7643C111.947 66.7668 110.531 67.3548 109.479 68.4125L108.798 69.091C107.302 68.3008 105.744 67.658 104.138 67.1673V66.2693C104.138 63.1533 101.602 60.6185 98.4855 60.6185H93.9232C90.8105 60.6185 88.2783 63.1533 88.2783 66.2693V67.2288C86.7023 67.724 85.1805 68.3613 83.726 69.1353L83.073 68.4843C82.0125 67.4185 80.5965 66.83 79.086 66.8278C79.0833 66.8278 79.0805 66.8278 79.0775 66.8278C77.5667 66.8278 76.1482 67.414 75.0825 68.479L71.8593 71.7008C70.7913 72.7683 70.2045 74.19 70.2067 75.7038C70.209 77.2143 70.7975 78.63 71.8562 79.682L72.5525 80.3803C71.7967 81.8228 71.176 83.3275 70.6957 84.8825H69.7383C66.6253 84.8825 64.093 87.414 64.093 90.526V95.0928C64.093 95.2958 64.1043 95.4963 64.1253 95.6938H49.4565C48.0643 95.6938 46.9355 96.8225 46.9355 98.2148C46.9355 99.607 48.0643 100.736 49.4565 100.736H69.738H70.7053C71.1928 102.306 71.823 103.822 72.5918 105.274L71.9105 105.953C69.7172 108.158 69.7192 111.737 71.9157 113.932L75.1407 117.156C76.2012 118.222 77.6172 118.81 79.1277 118.812H79.136C80.647 118.812 82.0655 118.226 83.1312 117.161L83.8065 116.486C85.2715 117.258 86.7947 117.889 88.3627 118.374V119.35C88.3627 122.466 90.895 125.001 94.008 125.001H98.5772C101.69 125.001 104.222 122.466 104.222 119.35V118.38C105.805 117.892 107.335 117.258 108.798 116.486L109.47 117.156C110.53 118.222 111.946 118.81 113.456 118.812H113.465C114.976 118.812 116.395 118.226 117.462 117.159L120.678 113.937C121.745 112.877 122.334 111.461 122.336 109.951C122.339 108.437 121.752 107.015 120.684 105.948L120.011 105.275C120.778 103.822 121.408 102.304 121.895 100.736H122.847C125.964 100.736 128.499 98.2045 128.499 95.0928V90.526C128.5 87.4145 125.965 84.883 122.848 84.883ZM5.54225 36.319V16.6363C5.54225 11.9775 8.6505 8.04127 12.3295 8.04127H107.553C111.232 8.04127 114.341 11.9775 114.341 16.6363V36.3193L5.54225 36.319ZM123.458 95.0933C123.458 95.4135 123.173 95.6943 122.848 95.6943H119.965C118.789 95.6943 117.77 96.5065 117.507 97.6523C116.963 100.029 116.027 102.282 114.727 104.351C114.101 105.347 114.247 106.644 115.079 107.476L117.119 109.515C117.272 109.667 117.295 109.849 117.295 109.944C117.294 110.058 117.265 110.222 117.118 110.368L113.896 113.595C113.744 113.748 113.562 113.771 113.465 113.771C113.465 113.771 113.465 113.771 113.465 113.771C113.35 113.771 113.185 113.741 113.037 113.592L110.99 111.553C110.157 110.724 108.863 110.58 107.868 111.205C105.797 112.508 103.534 113.445 101.142 113.989C99.9948 114.251 99.1805 115.271 99.1805 116.448V119.351C99.1805 119.675 98.8988 119.959 98.5778 119.959H94.0085C93.6872 119.959 93.4055 119.675 93.4055 119.351V116.441C93.4055 115.263 92.5895 114.241 91.4405 113.982C89.0792 113.448 86.8203 112.512 84.7268 111.202C84.3143 110.944 83.8507 110.818 83.39 110.818C82.7387 110.818 82.0933 111.07 81.607 111.556L79.5673 113.595C79.4145 113.748 79.2323 113.771 79.1363 113.771C79.136 113.771 79.1357 113.771 79.1355 113.771C79.0212 113.771 78.8558 113.741 78.711 113.595L75.4808 110.367C75.2545 110.141 75.257 109.74 75.4778 109.518L77.525 107.479C78.3615 106.646 78.5078 105.345 77.8775 104.347C76.5752 102.285 75.6387 100.033 75.0938 97.653C74.8313 96.5073 73.8118 95.6948 72.636 95.6948H69.7385C69.4118 95.6948 69.1355 95.4195 69.1355 95.0938V90.527C69.1355 90.2013 69.4118 89.9258 69.7385 89.9258H72.6288C73.8055 89.9258 74.826 89.1115 75.0872 87.9643C75.6253 85.6 76.5498 83.3573 77.835 81.2978C78.4555 80.3035 78.309 79.0128 77.4812 78.1828L75.4187 76.1143C75.2787 75.9753 75.2493 75.8105 75.249 75.697C75.249 75.602 75.2715 75.42 75.424 75.2678L78.647 72.0463C78.7998 71.8938 78.982 71.8708 79.078 71.8708H79.0788C79.193 71.871 79.3585 71.9005 79.5062 72.0493L81.5393 74.0743C82.3745 74.906 83.6738 75.0485 84.6683 74.4175C86.7282 73.1115 88.9845 72.1655 91.374 71.6063C92.514 71.3395 93.3203 70.3225 93.3203 69.1515V66.27C93.3203 65.9403 93.5962 65.6615 93.923 65.6615H98.4853C98.816 65.6615 99.0955 65.9403 99.0955 66.27V69.109C99.0955 70.2903 99.9155 71.313 101.069 71.5698C103.467 72.104 105.756 73.0475 107.871 74.3743C108.865 74.9973 110.158 74.8533 110.99 74.0248L113.046 71.9773C113.185 71.837 113.35 71.8075 113.465 71.8073H113.465C113.561 71.8073 113.744 71.8303 113.896 71.9828L117.119 75.204C117.272 75.3565 117.294 75.5385 117.294 75.6335C117.294 75.747 117.264 75.9118 117.116 76.059L115.076 78.1053C114.245 78.9385 114.101 80.2355 114.729 81.2305C116.034 83.2998 116.973 85.5658 117.52 87.9653C117.782 89.1123 118.802 89.926 119.979 89.926H122.848C123.173 89.926 123.458 90.2073 123.458 90.5273V95.0933Z" fill="#236A8D"/>
<path d="M96.2967 77.4131C87.8012 77.4131 80.8896 84.3216 80.8896 92.8133C80.8896 101.301 87.8012 108.207 96.2967 108.207C104.788 108.207 111.697 101.301 111.697 92.8133C111.697 84.3218 104.788 77.4131 96.2967 77.4131ZM96.2967 103.164C90.5817 103.164 85.9319 98.5208 85.9319 92.8133C85.9319 87.1018 90.5817 82.4553 96.2967 82.4553C102.008 82.4553 106.654 87.1018 106.654 92.8133C106.654 98.5208 102.008 103.164 96.2967 103.164Z" fill="#236A8D"/>
<path d="M38.3635 95.6946H38.314C36.9217 95.6946 35.793 96.8233 35.793 98.2156C35.793 99.6078 36.9217 100.737 38.314 100.737H38.3635C39.7557 100.737 40.8845 99.6078 40.8845 98.2156C40.8845 96.8233 39.7557 95.6946 38.3635 95.6946Z" fill="#236A8D"/>
</g>
<defs>
<clipPath id="clip0_3666_1908">
<rect width="128" height="128" fill="white" transform="translate(0.5)"/>
</clipPath>
</defs>
</svg>
