<svg width="129" height="106" viewBox="0 0 129 106" fill="none" xmlns="http://www.w3.org/2000/svg">
<path d="M123.755 66.8261L128.5 49.1161L120.549 46.2906C120.748 44.1394 120.771 41.8439 120.763 39.6811H98.2732V43.4336H105.826C105.716 45.9001 105.386 48.3106 104.86 50.6474C102.282 48.4376 98.974 47.1791 95.4965 47.1791C91.575 47.1791 87.8645 48.7741 85.1787 51.5361C82.4932 48.7746 78.7832 47.1801 74.8623 47.1801C70.941 47.1801 67.2308 48.7749 64.5452 51.5364C61.8597 48.7759 58.1497 47.1814 54.2298 47.1814C50.3098 47.1814 46.5998 48.7761 43.9142 51.5366C41.2287 48.7751 37.5185 47.1806 33.5975 47.1806C30.0855 47.1806 26.7443 48.4631 24.155 50.7146C23.62 48.3566 23.2847 45.9239 23.173 43.4336H94.5577V39.6811H66.4218V26.7104H70.0537C80.4672 26.7104 88.9392 18.2381 88.9392 7.82488V0.442383H81.5567C74.0612 0.442383 67.572 4.83213 64.5238 11.1754C61.4755 4.83213 54.9862 0.442383 47.4907 0.442383H40.108V7.82488C40.108 18.2384 48.58 26.7104 58.9935 26.7104H62.6693V39.6811H7.969C7.95675 41.8689 7.971 44.1329 8.17825 46.3119L0.5 49.0441L5.245 66.7526L13.2458 65.2824C14.6223 68.2301 16.2608 71.0641 18.1345 73.7381L12.668 80.1534L25.6325 93.1179L32.048 87.6514C34.716 89.5206 37.544 91.1561 40.485 92.5309L38.96 100.812L56.6695 105.557L59.4953 97.6071C62.7323 97.8861 65.9963 97.8861 69.2333 97.6071L72.0587 105.557L89.7685 100.812L88.2435 92.5309C91.1845 91.1561 94.0122 89.5204 96.6805 87.6514L103.096 93.1179L116.06 80.1536L110.594 73.7381C112.463 71.0704 114.098 68.2429 115.474 65.3011L123.755 66.8261ZM81.5567 4.19488H85.1868V7.82488C85.2168 16.5511 77.7493 23.4504 69.0775 22.9579L77.3798 14.6556L74.726 12.0019L66.4238 20.3044C65.931 11.6324 72.8305 4.16463 81.5567 4.19488ZM43.8607 7.82463V4.19488H47.4907C56.217 4.16488 63.1162 11.6326 62.6235 20.3041L54.3213 12.0019L51.6678 14.6556L59.97 22.9579C51.2983 23.4506 43.8305 16.5509 43.8607 7.82463ZM33.5978 50.9334C37.1562 50.9334 40.3527 52.6154 42.3677 55.5481L43.914 57.7986L45.4605 55.5484C47.4755 52.6159 50.6718 50.9341 54.2298 50.9341C57.7878 50.9341 60.984 52.6159 62.999 55.5484L64.5455 57.7989L66.0918 55.5481C68.1065 52.6149 71.3033 50.9329 74.862 50.9329C78.4207 50.9329 81.6175 52.6149 83.6322 55.5481L85.179 57.7996L86.7255 55.5479C88.74 52.6141 91.9367 50.9319 95.4962 50.9319C98.7362 50.9319 101.673 52.3296 103.694 54.7929C98.1612 71.1316 82.683 82.9261 64.5 82.9261C46.3473 82.9261 30.8902 71.1714 25.3335 54.8749C27.3563 52.3614 30.3223 50.9334 33.5978 50.9334ZM105.815 73.9161L110.956 79.9499L102.892 88.0144L96.8585 82.8734C92.9317 85.9119 88.596 88.4209 84.0167 90.2994L85.4502 98.0846L74.434 101.036L71.7783 93.5639C66.8672 94.2204 61.8603 94.2204 56.9495 93.5639L54.2938 101.036L43.2775 98.0846L44.7113 90.2994C40.1323 88.4206 35.7962 85.9121 31.8692 82.8734L25.8358 88.0144L17.7712 79.9501L22.9125 73.9164C19.8693 69.9841 17.358 65.6421 15.4788 61.0564L7.97275 62.4356L5.02075 51.4184L12.2242 48.8556C12.015 47.0854 11.8085 45.1491 11.7555 43.4339H19.4202C20.4077 67.4466 40.2485 86.6789 64.4995 86.6789C88.7507 86.6789 108.591 67.4466 109.579 43.4339H116.967C116.91 45.2096 116.714 47.0711 116.506 48.8361L123.978 51.4921L121.026 62.5084L113.241 61.0746C113.242 61.0744 110.91 67.6269 105.815 73.9161Z" fill="#236A8D"/>
<path d="M32.6025 56.5605H36.355V60.313H32.6025V56.5605Z" fill="#236A8D"/>
</svg>
