<svg width="128" height="128" viewBox="0 0 128 128" fill="none" xmlns="http://www.w3.org/2000/svg">
<path d="M64.668 37.5496H84.4606C86.1839 37.5496 87.5857 36.1478 87.5857 34.4245V14.5472C87.5857 12.8239 86.1839 11.4221 84.4606 11.4221H64.668C62.9447 11.4221 61.543 12.8239 61.543 14.5472V19.2503C61.543 20.286 62.3822 21.1253 63.418 21.1253C64.4538 21.1253 65.293 20.286 65.293 19.2503V15.1722H83.8356V33.7998H65.293V28.2719C65.293 27.2361 64.4538 26.3969 63.418 26.3969C62.3822 26.3969 61.543 27.2361 61.543 28.2719V34.4248C61.543 36.1478 62.9447 37.5496 64.668 37.5496Z" fill="#236A8D"/>
<path d="M29.7471 34.5194H55.2908C56.3266 34.5194 57.1658 33.6801 57.1658 32.6443C57.1658 31.6086 56.3266 30.7693 55.2908 30.7693H29.7471C28.7113 30.7693 27.8721 31.6086 27.8721 32.6443C27.8721 33.6801 28.7116 34.5194 29.7471 34.5194Z" fill="#236A8D"/>
<path d="M72.4916 48.4956C72.4916 47.4599 71.6523 46.6206 70.6166 46.6206H44.8409C43.8051 46.6206 42.9658 47.4599 42.9658 48.4956C42.9658 49.5314 43.8051 50.3707 44.8409 50.3707H70.6166C71.6521 50.3707 72.4916 49.5312 72.4916 48.4956Z" fill="#236A8D"/>
<path d="M29.7471 26.3609H55.2908C56.3266 26.3609 57.1658 25.5216 57.1658 24.4859C57.1658 23.4501 56.3266 22.6108 55.2908 22.6108H29.7471C28.7113 22.6108 27.8721 23.4501 27.8721 24.4859C27.8721 25.5216 28.7116 26.3609 29.7471 26.3609Z" fill="#236A8D"/>
<path d="M29.7471 18.2025H55.2908C56.3266 18.2025 57.1658 17.3632 57.1658 16.3274C57.1658 15.2917 56.3266 14.4524 55.2908 14.4524H29.7471C28.7113 14.4524 27.8721 15.2917 27.8721 16.3274C27.8721 17.3632 28.7116 18.2025 29.7471 18.2025Z" fill="#236A8D"/>
<path d="M29.7471 71.1165H68.2115C69.2473 71.1165 70.0866 70.2773 70.0866 69.2415C70.0866 68.2057 69.2473 67.3665 68.2115 67.3665H29.7471C28.7113 67.3665 27.8721 68.2057 27.8721 69.2415C27.8721 70.2773 28.7116 71.1165 29.7471 71.1165Z" fill="#236A8D"/>
<path d="M29.7471 60.627H60.1671C61.2029 60.627 62.0422 59.7878 62.0422 58.752C62.0422 57.7162 61.2029 56.877 60.1671 56.877H29.7471C28.7113 56.877 27.8721 57.7162 27.8721 58.752C27.8721 59.7878 28.7116 60.627 29.7471 60.627Z" fill="#236A8D"/>
<path d="M85.8263 56.877H68.294C67.2582 56.877 66.4189 57.7162 66.4189 58.752C66.4189 59.7878 67.2582 60.627 68.294 60.627H85.8263C86.8621 60.627 87.7013 59.7878 87.7013 58.752C87.7013 57.7162 86.8618 56.877 85.8263 56.877Z" fill="#236A8D"/>
<path d="M125.82 115.983C125.797 115.961 125.774 115.939 125.75 115.918L114.211 105.651C116.034 102.329 117.075 98.6075 117.213 94.7284C117.25 93.6934 116.441 92.8246 115.406 92.7876C114.369 92.7569 113.503 93.5599 113.465 94.5947C113.181 105.64 103.826 114.738 92.7587 114.627C81.3335 114.627 72.0384 105.301 72.0384 93.8372C71.8651 82.6027 81.5393 72.8883 92.7587 73.0473C101.499 73.0473 109.344 78.5936 112.279 86.8483C112.626 87.8238 113.7 88.3343 114.674 87.9868C115.65 87.6398 116.159 86.5675 115.813 85.592C112.681 76.7858 104.815 70.5922 95.7128 69.4787V3.12505C95.7128 1.40177 94.311 0 92.5877 0H22.869C21.1457 0 19.744 1.40177 19.744 3.12505V9.90692H13.0001C11.2768 9.90692 9.87503 11.3087 9.87503 13.032V19.8136H3.13091C1.40763 19.8136 0.00585938 21.2154 0.00585938 22.9387V116.477C0.00585938 118.2 1.40763 119.602 3.13091 119.602H62.8352C64.5585 119.602 65.9603 118.2 65.9603 116.477V109.695H74.1002C78.5922 115.003 85.2896 118.377 92.759 118.377C96.8636 118.377 100.826 117.363 104.352 115.456L115.978 125.869C118.743 128.607 123.222 128.759 125.996 126.021C128.772 123.368 128.604 118.607 125.82 115.983ZM23.494 3.75007H91.9627V69.313C83.9936 69.5727 76.7517 73.7163 72.4239 80.1872H64.8107C63.775 80.1872 62.9357 81.0264 62.9357 82.0622C62.9357 83.098 63.775 83.9372 64.8107 83.9372H70.3623C70.1113 84.5082 69.8801 85.091 69.6711 85.6865C68.7536 88.3003 68.2886 91.0428 68.2886 93.8372C68.2886 94.5792 68.3236 95.3127 68.3881 96.0382H42.3021C44.8756 93.5726 46.4837 90.1013 46.4837 86.258V83.9375H56.6836C57.7194 83.9375 58.5586 83.0982 58.5586 82.0624C58.5586 81.0267 57.7194 80.1874 56.6836 80.1874H44.6086C43.5729 80.1874 42.7336 81.0267 42.7336 82.0624V86.258C42.7336 91.6509 38.366 96.0382 32.9979 96.0382H23.494V3.75007ZM13.6251 105.945V80.3139C13.6251 79.2781 12.7858 78.4389 11.7501 78.4389C10.7143 78.4389 9.87503 79.2781 9.87503 80.3139V106.57C9.87503 108.293 11.2768 109.695 13.0001 109.695H62.2102V115.852H3.75593V23.5637H9.87503V72.3885C9.87503 73.4243 10.7143 74.2636 11.7501 74.2636C12.7858 74.2636 13.6251 73.4243 13.6251 72.3885V13.657H19.7442V97.9132C19.7442 98.949 20.5835 99.7882 21.6192 99.7882H69.0178C69.5618 101.97 70.3971 104.037 71.4809 105.945H13.6251V105.945ZM123.356 123.357C122.059 124.651 119.858 124.519 118.517 123.108L107.612 113.341C109.296 112.052 110.848 110.502 112.139 108.826L123.218 118.684C124.496 119.915 124.645 122.117 123.356 123.357Z" fill="#236A8D"/>
<path d="M92.7589 77.8108C84.1068 77.6876 76.6446 85.1765 76.7761 93.8371C76.7761 102.674 83.946 109.863 92.7589 109.863C101.572 109.863 108.741 102.674 108.741 93.8371C108.741 85.0002 101.572 77.8108 92.7589 77.8108ZM92.7589 106.113C86.014 106.113 80.5262 100.606 80.5262 93.8369C80.4237 87.2037 86.1353 81.4669 92.7589 81.5606C99.5038 81.5606 104.991 87.0675 104.991 93.8369C104.991 100.606 99.504 106.113 92.7589 106.113Z" fill="#236A8D"/>
</svg>
