<svg width="110" height="139" viewBox="0 0 110 139" fill="none" xmlns="http://www.w3.org/2000/svg">
<path fill-rule="evenodd" clip-rule="evenodd" d="M52.9859 2.03613C52.9859 0.911642 53.8874 0 55 0C56.1126 0 57.0141 0.911642 57.0141 2.03613V8.79118C57.0141 9.91567 56.1126 10.8273 55 10.8273C53.8874 10.8273 52.9859 9.91567 52.9859 8.79118V2.03613ZM93.8906 16.2857C93.1038 15.4905 91.8287 15.4905 91.0419 16.2857L86.3172 21.0622C85.5306 21.8574 85.5306 23.1467 86.3172 23.9418C87.104 24.737 88.379 24.7367 89.1659 23.9418L93.8906 19.1654C94.6772 18.3699 94.6772 17.0806 93.8906 16.2857ZM81.4985 49.0881H75.3988C75.0263 47.893 74.5526 46.7359 73.9809 45.6258L78.2937 41.2655C78.8327 40.7207 79.1294 39.9961 79.1294 39.2253C79.1294 38.4543 78.8327 37.7297 78.2937 37.1849L73.218 32.0533C72.1051 30.9291 70.2946 30.9285 69.1815 32.0535L64.8684 36.4138C63.7704 35.8359 62.6256 35.3567 61.4437 34.9804V28.8137C61.4434 27.2228 60.163 25.9281 58.5891 25.9281H51.4107C49.837 25.9281 48.5566 27.2225 48.5566 28.8137V34.9804C47.3745 35.357 46.2299 35.8359 45.1316 36.4138L40.8183 32.0533C39.7054 30.9288 37.8949 30.9291 36.7821 32.0535L31.7066 37.1846C31.1674 37.7295 30.8704 38.454 30.8704 39.2251C30.8704 39.9958 31.1674 40.7204 31.7063 41.2653L36.0194 45.6256C35.4477 46.7356 34.9737 47.893 34.6015 49.0878H28.5015C26.9279 49.0878 25.6475 50.3822 25.6475 51.9734V59.2304C25.6475 60.8213 26.9279 62.1157 28.5015 62.1157H34.6015C34.974 63.3105 35.4477 64.4681 36.0194 65.578L31.7063 69.9383C30.5935 71.0633 30.5935 72.8939 31.7063 74.0189L36.7821 79.1502C37.8949 80.2755 39.706 80.2753 40.8185 79.1502L45.1316 74.7899C46.2297 75.3679 47.3747 75.8471 48.5566 76.2234V82.3901C48.5566 83.981 49.837 85.2755 51.4107 85.2755H58.5891C60.1628 85.2755 61.4434 83.981 61.4434 82.3901V76.2234C62.625 75.8471 63.7701 75.3679 64.8682 74.7899L69.1812 79.1502C70.2943 80.2755 72.1051 80.2753 73.218 79.1502L78.2934 74.0189C78.8324 73.4741 79.1291 72.7495 79.1291 71.9787C79.1291 71.208 78.8324 70.4834 78.2934 69.9383L73.9804 65.578C74.5521 64.4679 75.0261 63.3105 75.3983 62.1157H81.4982C83.0719 62.1157 84.3526 60.8213 84.3526 59.2304V51.9734C84.3528 50.3825 83.0721 49.0881 81.4985 49.0881ZM80.325 58.0435H73.8641C72.9285 58.0435 72.1161 58.6948 71.9029 59.6159C71.4735 61.4715 70.7527 63.2315 69.7605 64.8466C69.2666 65.6502 69.3856 66.6916 70.047 67.3608L74.6152 71.979L71.1999 75.4317L66.6317 70.8135C65.97 70.1446 64.9399 70.024 64.1444 70.5236C62.5466 71.5267 60.8056 72.2554 58.9707 72.6898C58.0595 72.905 57.4153 73.7263 57.4153 74.6724V81.2043H52.5855V74.6724C52.5855 73.7265 51.9413 72.9053 51.0301 72.6898C49.1952 72.2559 47.4542 71.5273 45.8561 70.5236C45.0615 70.0251 44.0311 70.1446 43.3692 70.8135L38.801 75.4317L35.3856 71.979L39.9538 67.3608C40.6155 66.6919 40.7342 65.6505 40.2406 64.8466C39.2484 63.2313 38.5276 61.4712 38.0982 59.6159C37.8852 58.6948 37.0726 58.0435 36.137 58.0435H29.6762V53.1609H36.137C37.0726 53.1609 37.885 52.5096 38.0982 51.5884C38.5276 49.7331 39.2484 47.9731 40.2406 46.3577C40.7342 45.5542 40.6155 44.5127 39.9538 43.8435L35.3856 39.2253L38.801 35.7726L43.3692 40.3908C44.0303 41.0597 45.061 41.18 45.8561 40.6807C47.4537 39.6776 49.1947 38.949 51.0301 38.5149C51.9413 38.2996 52.5855 37.4783 52.5855 36.5322V30.0003H57.4153V36.5322C57.4153 37.4781 58.0595 38.2993 58.9707 38.5149C60.8059 38.949 62.5466 39.6776 64.1447 40.6807C64.9391 41.1795 65.9697 41.0592 66.6317 40.3908L71.1999 35.7726L74.6152 39.2253L70.047 43.8435C69.3853 44.5125 69.2666 45.5539 69.7605 46.3577C70.7525 47.9725 71.4732 49.7326 71.9029 51.5884C72.1161 52.5096 72.9282 53.1609 73.8641 53.1609H80.325V58.0435ZM55.0001 44.6939C49.0502 44.6939 44.21 49.5874 44.21 55.6021C44.21 61.6168 49.0505 66.5103 55.0001 66.5103C60.9496 66.5103 65.7901 61.6168 65.7901 55.6021C65.7901 49.5874 60.9499 44.6939 55.0001 44.6939ZM55.0001 62.438C51.2716 62.438 48.2382 59.3714 48.2382 55.6021C48.2382 51.8328 51.2716 48.7661 55.0001 48.7661C58.7285 48.7661 61.762 51.8328 61.762 55.6021C61.762 59.3714 58.7285 62.438 55.0001 62.438ZM2.01407 53.5659H8.69595C9.80826 53.5659 10.71 54.4775 10.71 55.602C10.71 56.7265 9.80826 57.6381 8.69595 57.6381H2.01407C0.901767 57.6381 0 56.7265 0 55.602C0 54.4775 0.901767 53.5659 2.01407 53.5659ZM107.986 53.5659H101.304C100.191 53.5659 99.2897 54.4775 99.2897 55.602C99.2897 56.7265 100.191 57.6381 101.304 57.6381H107.986C109.098 57.6381 110 56.7265 110 55.602C110 54.4775 109.098 53.5659 107.986 53.5659ZM20.8335 87.2626C21.6204 86.4675 22.8957 86.4675 23.682 87.2626C24.4685 88.0578 24.4685 89.3471 23.682 90.1423L18.9572 94.9188C18.1707 95.7139 16.8954 95.7139 16.1088 94.9188C15.3222 94.1236 15.3222 92.8343 16.1088 92.0391L20.8335 87.2626ZM93.8906 92.0391L89.1659 87.2626C88.379 86.4675 87.104 86.4675 86.3172 87.2626C85.5306 88.0578 85.5306 89.3474 86.3172 90.1423L91.0419 94.9188C91.8287 95.7139 93.1038 95.7139 93.8906 94.9188C94.6772 94.1236 94.6772 92.8343 93.8906 92.0391ZM18.9572 16.2857L23.682 21.0622C24.4685 21.8571 24.4685 23.1464 23.682 23.9418C22.8954 24.737 21.6201 24.737 20.8335 23.9418L16.1088 19.1654C15.3222 18.3702 15.3222 17.0809 16.1088 16.2857C16.8954 15.4905 18.1707 15.4905 18.9572 16.2857ZM95.1815 50.6141C93.0141 31.9156 78.3525 17.0921 59.9433 14.8236C58.8409 14.6865 57.8347 15.4822 57.6999 16.5983C57.5654 17.7146 58.3514 18.73 59.4556 18.8662C76.1743 20.9263 89.2201 34.1766 91.1802 51.0881C91.3003 52.1243 92.1706 52.8872 93.1779 52.8872C93.2563 52.8872 93.3353 52.8826 93.415 52.8734C94.5204 52.7428 95.3109 51.7312 95.1815 50.6141ZM91.1404 60.0976C91.2801 58.9818 92.2863 58.1909 93.3917 58.3332C94.4951 58.4744 95.2763 59.4933 95.1353 60.6091C93.6102 72.7894 86.8123 83.5348 76.4858 90.0895C73.6572 91.8848 71.9689 94.9509 71.9689 98.2915V106.968C74.0171 107.688 75.4935 109.653 75.4935 111.966V114.869C75.4935 116.098 75.0735 117.227 74.3759 118.127C75.0735 119.026 75.4935 120.156 75.4935 121.385V124.287C75.4935 127.206 73.1443 129.581 70.2567 129.581H63.9244V134.184C63.9244 136.84 61.7879 139 59.1613 139H50.8373C48.2109 139 46.0741 136.84 46.0741 134.184V129.581H39.7419C36.8545 129.581 34.505 127.206 34.505 124.287V121.385C34.505 120.155 34.9248 119.026 35.6224 118.127C34.925 117.227 34.505 116.098 34.505 114.869V111.966C34.505 109.654 35.9817 107.688 38.0297 106.968V98.1061C38.0297 94.9053 36.3832 91.8864 33.7324 90.2276C27.977 86.6259 23.165 81.5812 19.8171 75.6384C16.3633 69.5083 14.5381 62.5181 14.5381 55.4234C14.5378 34.8634 29.9078 17.35 50.0526 14.8271C51.1571 14.6871 52.1625 15.4817 52.2992 16.5975C52.4359 17.7136 51.652 18.7305 50.548 18.8687C32.3159 21.1519 18.567 36.867 18.567 55.4234C18.5673 68.2752 25.0295 79.9916 35.8534 86.7651C39.6809 89.1604 42.0589 93.5064 42.0589 98.1064V106.672H67.9418V98.2918C67.9418 93.5414 70.3354 89.1857 74.345 86.6405C83.6457 80.7371 89.7674 71.0623 91.1404 60.0976ZM59.1621 134.927C59.5603 134.927 59.8968 134.587 59.8968 134.184V129.581H50.1033V134.184C50.1033 134.587 50.4398 134.927 50.8381 134.927H59.1621ZM70.2578 125.509C70.9127 125.509 71.4662 124.949 71.4662 124.287V121.384C71.4662 120.722 70.9127 120.163 70.2578 120.163H39.7427C39.0877 120.163 38.5342 120.722 38.5342 121.384V124.287C38.5342 124.949 39.0877 125.509 39.7427 125.509H70.2578ZM70.2578 116.09C70.9127 116.09 71.4662 115.53 71.4662 114.868V111.966C71.4662 111.303 70.9127 110.744 70.2578 110.744H39.7427C39.0877 110.744 38.5342 111.303 38.5342 111.966V114.868C38.5342 115.53 39.0877 116.09 39.7427 116.09H70.2578Z" fill="#236A8D"/>
</svg>
