<svg width="103" height="117" viewBox="0 0 103 117" fill="none" xmlns="http://www.w3.org/2000/svg">
<path d="M63.7055 46.6953L44.0969 64.2077L36.0693 57.0406C35.4623 56.5172 34.6492 56.2275 33.8053 56.2341C32.9613 56.2406 32.154 56.5428 31.5572 57.0756C30.9605 57.6085 30.622 58.3292 30.6146 59.0827C30.6073 59.8362 30.9317 60.5621 31.518 61.1041L41.818 70.2999C42.4216 70.8387 43.2402 71.1413 44.0937 71.1413C44.9472 71.1413 45.7657 70.8387 46.3693 70.2999L68.3083 50.7185C68.9059 50.1735 69.2365 49.439 69.2274 48.6764C69.2184 47.9138 68.8704 47.1857 68.26 46.6522C67.6497 46.1187 66.8269 45.8235 65.9728 45.8316C65.1186 45.8397 64.3031 46.1504 63.7055 46.6953ZM102.929 11.1015C102.843 10.732 102.675 10.3814 102.437 10.0696C102.199 9.75785 101.894 9.49107 101.54 9.28452C101.186 9.07796 100.79 8.93569 100.374 8.86581C99.9588 8.79594 99.532 8.79984 99.1181 8.8773C91.2549 10.3621 83.1336 10.3864 75.2594 8.94875C67.3852 7.51109 59.9266 4.6422 53.3476 0.520556C52.8062 0.181754 52.1611 0 51.5 0C50.8389 0 50.1938 0.181754 49.6525 0.520556C43.0734 4.6422 35.6148 7.51109 27.7406 8.94875C19.8664 10.3864 11.7451 10.3621 3.88188 8.8773C3.41254 8.78691 2.92647 8.79179 2.45953 8.89159C1.9926 8.99138 1.55673 9.18353 1.18412 9.45386C0.811503 9.72419 0.511658 10.0658 0.30672 10.4534C0.101781 10.8411 -0.00301649 11.2649 6.60837e-05 11.6935V57.7763C0.00514184 66.0949 2.22533 74.2933 6.4775 81.6951C10.7297 89.097 16.892 95.4902 24.4561 100.347L49.6267 116.463C50.1731 116.812 50.8281 117 51.5 117C52.1719 117 52.827 116.812 53.3733 116.463L78.5439 100.347C86.1081 95.4902 92.2704 89.097 96.5225 81.6951C100.775 74.2933 102.995 66.0949 103 57.7763V11.6878C103.001 11.4909 102.973 11.2945 102.929 11.1015ZM96.5625 57.7763C96.5593 65.1817 94.5848 72.4803 90.8017 79.0705C87.0186 85.6608 81.5353 91.3539 74.8037 95.6805L51.5 110.589L28.1963 95.6862C21.4638 91.3591 15.9799 85.6651 12.1968 79.0737C8.41367 72.4824 6.43966 65.1826 6.43756 57.7763V15.1305C22.1577 17.2255 38.1924 14.0965 51.5 6.33694C64.8123 14.0864 80.8427 17.2146 96.5625 15.1305V57.7763Z" fill="#236A8D"/>
</svg>
