<svg width="139" height="129" viewBox="0 0 139 129" fill="none" xmlns="http://www.w3.org/2000/svg">
<path d="M123.369 67.671C123.369 37.8995 99.1483 13.6787 69.3768 13.6787C62.0225 13.6787 54.892 15.1317 48.1839 17.9975C47.1514 18.4384 46.672 19.6329 47.1131 20.6654C47.5543 21.6978 48.7488 22.1773 49.781 21.7361C53.869 19.9899 58.1283 18.8149 62.5052 18.2144C49.1865 29.2687 40.945 46.7621 40.3868 65.6392H19.4961C20.142 49.6259 28.3891 34.9272 41.8442 26.0155C42.78 25.3954 43.0363 24.1344 42.4165 23.1983C41.7964 22.2622 40.5348 22.0065 39.5993 22.626C24.4369 32.6685 15.3848 49.5079 15.3848 67.6712C15.3848 97.4425 39.6055 121.663 69.377 121.663C99.1485 121.663 123.369 97.4425 123.369 67.671ZM119.259 65.6392H98.3669C97.809 46.7653 89.5703 29.2749 76.2556 18.2204C99.8854 21.4912 118.282 41.3595 119.259 65.6392ZM94.2531 82.8222C95.7439 87.2583 98.788 90.8468 103.177 93.3515C98.788 95.8562 95.7439 99.4447 94.2531 103.881C92.7621 99.4447 89.718 95.8562 85.3292 93.3515C89.7183 90.8468 92.7621 87.2583 94.2531 82.8222ZM92.9573 77.8144C92.9576 77.8144 92.9576 77.8144 92.9573 77.8144V77.8144ZM88.6625 69.7047H94.2974C94.2455 71.405 94.1321 73.1015 93.9502 74.7844C92.8197 74.9093 91.8755 75.7216 91.5999 76.848L90.7551 80.2996C89.3148 86.1827 84.8625 89.2537 81.381 90.7938C79.6033 91.5776 79.0867 94.8083 81.381 95.9094C84.8625 97.4495 89.3148 100.521 90.7551 106.404L91.5999 109.856C91.7946 110.65 92.3221 111.287 93.0125 111.639C87.9094 114.393 82.275 116.282 76.3064 117.115C79.3291 114.601 82.1175 111.735 84.6369 108.544C85.3324 107.663 85.182 106.385 84.3011 105.689C83.4198 104.994 82.142 105.144 81.4461 106.025C78.4761 109.787 75.1091 113.059 71.4096 115.789V69.7047H78.9069C80.0295 69.7047 80.9395 68.7946 80.9395 67.6721C80.9395 66.5495 80.0295 65.6395 78.9069 65.6395H71.4096V19.5944C85.1231 29.718 93.7115 46.9277 94.2979 65.6392H88.6625C87.5399 65.6392 86.6299 66.5492 86.6299 67.6718C86.6299 68.7944 87.5399 69.7047 88.6625 69.7047ZM67.3442 115.782C53.6228 105.652 45.0317 88.4287 44.4545 69.7047H67.3442V115.782ZM67.3442 19.5944V65.6392H44.4559C45.0423 46.9277 53.6304 29.718 67.3442 19.5944ZM19.4948 69.7047H40.386C40.9347 88.5679 49.1561 106.052 62.4493 117.115C38.8437 113.824 20.4721 93.9669 19.4948 69.7047ZM97.0682 109.194L97.7512 106.403C99.1914 100.52 103.644 97.4493 107.125 95.9091C108.903 95.1256 109.42 91.8947 107.125 90.7936C103.644 89.2534 99.1914 86.1824 97.7512 80.2993L97.4577 79.1005C97.9698 76.015 98.2738 72.8658 98.3645 69.7044H119.259C118.596 86.1569 109.937 100.584 97.0682 109.194Z" fill="#236A8D"/>
<path d="M137.766 16.1954C137.669 16.1311 137.567 16.0749 137.461 16.0279C133.979 14.4878 129.527 11.4167 128.087 5.53367L127.242 2.08201C126.942 0.856262 125.851 0 124.589 0C123.327 0 122.236 0.85599 121.936 2.08201L121.091 5.53367C119.651 11.4167 115.198 14.4878 111.717 16.0279C110.118 16.6819 109.362 20.0706 111.717 21.1435C115.198 22.6836 119.651 25.7546 121.091 31.6377L121.936 35.0896C122.236 36.3154 123.327 37.1716 124.589 37.1716C125.851 37.1716 126.942 36.3156 127.242 35.0896L128.087 31.638C129.527 25.7549 133.98 22.6839 137.461 21.1437C139.134 20.3852 139.737 17.5126 137.766 16.1954ZM124.589 29.1148C123.098 24.6787 120.054 21.0903 115.665 18.5855C120.054 16.0808 123.098 12.4924 124.589 8.0563C126.08 12.4924 129.124 16.0808 133.512 18.5855C129.124 21.0905 126.08 24.679 124.589 29.1148Z" fill="#236A8D"/>
<path d="M125.153 114.076C125.057 114.012 124.955 113.956 124.849 113.909C122.022 112.658 120.265 110.703 119.627 108.098L119.116 106.008C118.846 104.906 117.865 104.136 116.731 104.136H116.73C115.596 104.136 114.615 104.905 114.345 106.008L113.833 108.098C113.196 110.703 111.439 112.658 108.612 113.909C107.074 114.564 106.479 117.442 108.612 118.473C111.439 119.724 113.196 121.679 113.833 124.284L114.345 126.375C114.615 127.477 115.596 128.247 116.731 128.247C117.865 128.247 118.846 127.476 119.116 126.375L119.628 124.285C120.266 121.679 122.022 119.724 124.849 118.473C126.272 117.836 126.967 115.341 125.153 114.076ZM115.167 106.974L115.167 106.976C115.167 106.975 115.167 106.975 115.167 106.974C115.167 106.974 115.167 106.974 115.167 106.974ZM116.73 120.532C115.828 118.823 114.516 117.362 112.831 116.191C114.516 115.019 115.828 113.558 116.73 111.849C117.633 113.558 118.945 115.019 120.629 116.191C118.945 117.362 117.633 118.823 116.73 120.532Z" fill="#236A8D"/>
<path d="M17.9277 40.6496C19.2181 39.8251 19.6161 37.2257 17.6229 36.2529C14.7959 35.0022 13.0394 33.047 12.4014 30.4415L11.8897 28.3516C11.6198 27.2494 10.6387 26.4795 9.50385 26.4795C8.36931 26.4798 7.38817 27.2497 7.11886 28.3516L6.60711 30.4415C5.96912 33.0472 4.21235 35.0025 1.38565 36.2529C-0.152579 36.9083 -0.747402 39.7858 1.38565 40.8171C4.21235 42.0676 5.96885 44.0228 6.60684 46.6285L7.11831 48.7181C7.3879 49.8204 8.36877 50.5903 9.5033 50.5903C10.6378 50.5903 11.619 49.8206 11.8888 48.7184L12.4006 46.6285C13.0383 44.0228 14.7951 42.0679 17.6218 40.8171C17.7287 40.7699 17.8308 40.714 17.9277 40.6496ZM9.50439 42.8763C8.60198 41.1673 7.28989 39.7065 5.60506 38.5348C7.28989 37.3633 8.60225 35.9022 9.50439 34.1932C10.4065 35.9019 11.7189 37.3633 13.4037 38.5348C11.7186 39.7065 10.4065 41.1676 9.50439 42.8763Z" fill="#236A8D"/>
</svg>
