<svg width="128" height="128" viewBox="0 0 128 128" fill="none" xmlns="http://www.w3.org/2000/svg">
<path d="M68.3446 75.3861C65.4174 72.5969 61.2336 71.7081 57.4256 73.0686C52.7446 74.7404 49.5996 79.2031 49.5996 84.1736V88.1416C49.5996 93.4914 53.9521 97.8438 59.3019 97.8438C62.8446 97.8438 66.1039 95.9143 67.8081 92.8081L70.3326 88.2064C72.6501 83.9824 71.8326 78.7104 68.3446 75.3861ZM65.9489 85.8016L63.4244 90.4036C62.5984 91.9089 61.0189 92.8441 59.3019 92.8441C56.7091 92.8441 54.5996 90.7346 54.5996 88.1419V84.1739C54.5996 81.3109 56.4111 78.7406 59.1071 77.7774C59.7326 77.5539 60.3774 77.4451 61.0154 77.4451C62.4361 77.4451 63.8244 77.9856 64.8951 79.0059C66.7441 80.7679 67.1776 83.5623 65.9489 85.8016Z" fill="#236A8D"/>
<path d="M104.379 116.679L97.3963 123.661C96.4201 124.638 96.4198 126.221 97.3963 127.197C97.8846 127.685 98.5243 127.929 99.1641 127.929C99.8038 127.929 100.444 127.685 100.932 127.197L107.914 120.215C108.89 119.239 108.891 117.656 107.914 116.679C106.938 115.703 105.355 115.703 104.379 116.679Z" fill="#236A8D"/>
<path d="M124.954 62.2184C123.019 60.5901 120.48 59.9041 117.987 60.3383C113.883 61.0521 110.904 64.5936 110.904 68.7597V73.6745C107.925 67.2346 103.621 61.4188 98.2115 56.6346L102.649 51.0033C104.698 52.0828 107.028 52.6973 109.501 52.6973C116.789 52.6973 122.991 47.2827 124.078 40.1814C126.546 37.9386 127.992 34.7173 127.992 31.3588C127.992 24.7955 122.652 19.4559 116.089 19.4559C112.73 19.4559 109.509 20.9012 107.266 23.37C100.165 24.457 94.7504 30.6583 94.7504 37.9471C94.7504 41.8089 96.2442 45.3272 98.6817 47.9592L94.3102 53.5068C86.2026 47.6292 76.5458 44.2292 66.4999 43.7439V36.8061C68.7434 38.1019 71.311 38.8039 74.0032 38.8039C82.2881 38.8039 89.0284 32.0636 89.0284 23.7785C89.0284 17.3124 84.9293 11.6459 78.9128 9.57509C76.266 3.79879 70.4269 0 63.9999 0C57.5728 0 51.7338 3.79854 49.087 9.57509C43.0704 11.6456 38.9714 17.3122 38.9714 23.7785C38.9714 32.0636 45.7117 38.8039 53.9965 38.8039C56.6888 38.8039 59.2563 38.1019 61.4999 36.8061V43.7437C51.4548 44.2289 41.7972 47.6287 33.6896 53.5063L29.3183 47.959C31.7558 45.3269 33.2496 41.8087 33.2496 37.9469C33.2496 30.6583 27.835 24.4567 20.734 23.3697C18.4912 20.901 15.2699 19.4557 11.9114 19.4557C5.34805 19.4557 0.00825008 24.7952 0.00825008 31.3586C0.00825008 34.7171 1.45351 37.9384 3.92229 40.1811C5.0093 47.2822 11.2106 52.697 18.4994 52.697C20.9717 52.697 23.3022 52.0825 25.351 51.003L29.7885 56.6343C24.3795 61.4181 20.0752 67.2339 17.0957 73.6737V68.7594C17.0957 64.5939 14.1169 61.0521 10.0126 60.3378C7.52057 59.9051 4.9813 60.5898 3.04553 62.2181C1.11001 63.8461 0 66.2304 0 68.7597V82.9743C0 94.0372 4.30804 104.438 12.1306 112.26L27.0675 127.197C27.5558 127.685 28.1955 127.929 28.8353 127.929C29.475 127.929 30.115 127.685 30.6031 127.197C31.5793 126.221 31.5793 124.638 30.6031 123.661L15.6659 108.725C8.78809 101.846 5.00005 92.7014 5.00005 82.9743V68.7597C5.00005 67.7102 5.4608 66.7204 6.26431 66.0449C7.06757 65.3689 8.12133 65.0851 9.15609 65.2644C10.8594 65.5609 12.0959 67.0306 12.0959 68.7597V84.6318C12.0959 89.7339 14.0829 94.5309 17.6907 98.139L31.2503 111.699L32.2581 112.706C33.2346 113.682 34.8173 113.683 35.7938 112.706C36.7701 111.73 36.7701 110.147 35.7938 109.171L21.609 94.9857C19.9454 93.3224 19.9454 90.6159 21.609 88.9524C23.2722 87.2889 25.979 87.2889 27.6423 88.9524L39.0096 100.32C39.4784 100.788 40.1144 101.052 40.7774 101.052C45.6212 101.052 50.175 102.938 53.6 106.363C58.6946 111.458 61.5004 118.231 61.5004 125.436C61.5004 126.817 62.6196 127.936 64.0004 127.936C65.3811 127.936 66.5004 126.817 66.5004 125.436C66.5004 118.231 69.3062 111.458 74.4007 106.363C77.8255 102.938 82.3793 101.052 87.2231 101.052C87.8861 101.052 88.5221 100.788 88.9909 100.32L100.358 88.9524C102.021 87.2889 104.728 87.2894 106.392 88.9524C108.055 90.6156 108.055 93.3222 106.392 94.9857L92.2066 109.171C91.2304 110.147 91.2304 111.73 92.2066 112.706C92.6949 113.194 93.3347 113.439 93.9744 113.439C94.6142 113.439 95.2542 113.194 95.7422 112.706L96.7499 111.699L110.31 98.139C113.917 94.5307 115.904 89.7339 115.904 84.6318V68.7597C115.904 67.0306 117.141 65.5606 118.844 65.2646C119.878 65.0844 120.932 65.3686 121.736 66.0449C122.539 66.7204 123 67.7102 123 68.7597V82.9743C123 88.9976 121.487 94.9827 118.624 100.283C117.967 101.497 118.42 103.015 119.635 103.671C120.849 104.326 122.366 103.874 123.023 102.659C126.279 96.6314 128 89.8244 128 82.9743V68.7597C128 66.2304 126.89 63.8461 124.954 62.2184ZM108.742 28.2298C109.461 28.1745 110.122 27.8113 110.553 27.2333C111.872 25.468 113.889 24.456 116.088 24.456C119.895 24.456 122.991 27.5528 122.991 31.3588C122.991 33.5581 121.979 35.5753 120.214 36.8941C119.636 37.3261 119.273 37.9864 119.217 38.7056C118.83 43.7477 114.562 47.6972 109.5 47.6972C104.124 47.6972 99.7502 43.3234 99.7502 37.9471C99.7505 32.8853 103.7 28.617 108.742 28.2298ZM43.9714 23.7785C43.9714 19.1714 47.0882 15.1731 51.551 14.0549C52.3553 13.8534 53.0075 13.2661 53.2918 12.4871C54.927 8.00883 59.2301 5.00005 63.9999 5.00005C68.7697 5.00005 73.073 8.00883 74.708 12.4871C74.9925 13.2659 75.6445 13.8534 76.4487 14.0549C80.9115 15.1731 84.0283 19.1714 84.0283 23.7785C84.0283 29.3063 79.531 33.8038 74.0032 33.8038C71.3322 33.8038 68.8442 32.7691 66.9804 30.9291L71.5067 26.4028C72.483 25.4265 72.483 23.8435 71.5067 22.867C70.5304 21.891 68.9474 21.891 67.9709 22.867L66.4996 24.3382V15.9284C66.4996 14.5479 65.3804 13.4284 63.9996 13.4284C62.6189 13.4284 61.4996 14.5479 61.4996 15.9284V26.86L57.5173 22.8777C56.5411 21.9017 54.958 21.9017 53.9815 22.8777C53.0053 23.854 53.0053 25.437 53.9815 26.4135L59.6371 32.0691C57.9986 33.1893 56.0518 33.8036 53.996 33.8036C48.4687 33.8036 43.9714 29.3063 43.9714 23.7785ZM8.78234 38.7056C8.72709 37.9864 8.36383 37.3259 7.78583 36.8941C6.02056 35.5756 5.0083 33.5581 5.0083 31.3588C5.0083 27.5525 8.10508 24.456 11.9114 24.456C14.1106 24.456 16.1282 25.4682 17.4464 27.2333C17.8782 27.8115 18.5387 28.1748 19.2579 28.2298C24.3 28.617 28.2495 32.8851 28.2495 37.9469C28.2495 43.3232 23.8757 47.697 18.4994 47.697C13.4379 47.6972 9.16959 43.7477 8.78234 38.7056ZM18.4847 85.0318C19.9587 78.5128 22.802 72.5352 26.6778 67.3917H33.8948C37.2971 67.3917 40.0651 70.1594 40.0651 73.562C40.0651 75.5085 39.1314 77.362 37.5671 78.5203C34.9196 80.4813 33.0328 83.2773 32.1543 86.3938L31.1776 85.4171C27.6985 81.938 22.1195 81.8108 18.4847 85.0318ZM86.1636 96.0757C80.382 96.3344 74.9835 98.709 70.8649 102.828C67.8962 105.797 65.5846 109.247 64.0001 113.002C62.4156 109.247 60.1041 105.796 57.1356 102.828C53.0168 98.709 47.6182 96.3344 41.8367 96.0757L36.5974 90.8364V90.3709C36.5974 87.2961 38.0724 84.3681 40.5431 82.5381C43.3749 80.441 45.0652 77.0853 45.0652 73.5617C45.0652 67.4024 40.0544 62.3914 33.8948 62.3914H31.0288C39.5451 53.8958 51.275 48.6817 64.0001 48.6817C72.705 48.6817 80.9425 51.1195 88.0046 55.378C80.8028 57.5443 75.5402 64.2334 75.5402 72.1317C75.5402 78.104 78.5373 83.6011 83.5576 86.8366L88.7569 90.1869C89.4179 90.6129 89.9991 91.1446 90.4831 91.7554L86.1636 96.0757ZM96.8222 85.4171L94.0324 88.2071C93.2879 87.3541 92.4264 86.6038 91.4656 85.9846L86.2661 82.6343C82.6808 80.3235 80.5403 76.3975 80.5403 72.1322C80.5403 65.2429 86.1448 59.6381 93.0342 59.6381H93.9652C101.617 66.0561 107.223 74.889 109.516 85.0321C105.881 81.8108 100.302 81.9378 96.8222 85.4171Z" fill="#236A8D"/>
<path d="M114.104 107.994C113.444 107.994 112.799 108.259 112.334 108.724C111.869 109.189 111.604 109.834 111.604 110.494C111.604 111.151 111.869 111.794 112.334 112.261C112.801 112.726 113.444 112.994 114.104 112.994C114.761 112.994 115.404 112.726 115.871 112.261C116.336 111.794 116.604 111.151 116.604 110.494C116.604 109.834 116.336 109.191 115.871 108.724C115.404 108.259 114.761 107.994 114.104 107.994Z" fill="#236A8D"/>
</svg>
