<svg width="54" height="54" viewBox="0 0 54 54" fill="none" xmlns="http://www.w3.org/2000/svg">
<g clip-path="url(#clip0_3531_1583)">
<path d="M48.9328 11.2519C49.466 10.5205 49.7818 9.62086 49.7818 8.64844C49.7818 6.20589 47.7946 4.21875 45.3521 4.21875C44.3797 4.21875 43.48 4.53452 42.7486 5.06777C38.1429 1.75015 32.7168 0 27 0C21.3919 0 16.0142 1.70353 11.4479 4.92634C10.972 5.26226 10.8585 5.92028 11.1945 6.39626C11.5304 6.87213 12.1885 6.98562 12.6644 6.6497C15.7145 4.49687 19.1584 3.08032 22.7913 2.46322C22.3684 3.00048 21.9436 3.64711 21.5244 4.42589C20.2448 6.80305 19.1889 10.0767 18.4528 13.9347C16.5164 14.074 14.9212 15.4624 14.4713 17.2969H4.07183C4.68482 15.8499 5.43702 14.457 6.32486 13.1358C6.6497 12.6523 6.52103 11.9971 6.03756 11.6722C5.55409 11.3473 4.89881 11.4759 4.57397 11.9594C1.58161 16.4127 0 21.6137 0 27C0 32.7148 1.75025 38.1422 5.06746 42.7485C4.53442 43.4798 4.21875 44.3794 4.21875 45.3516C4.21875 47.7941 6.20589 49.7812 8.64844 49.7812C9.62075 49.7812 10.5203 49.4656 11.2516 48.9324C15.8576 52.2499 21.2846 54 27 54C34.212 54 40.9922 51.1915 46.092 46.0919C51.1915 40.9923 54 34.212 54 27C54 21.2838 52.2501 15.8578 48.9328 11.2519ZM50.7045 34.5938H39.4577C39.0964 33.1209 37.997 31.9358 36.5754 31.4534C36.6586 29.9882 36.7031 28.4953 36.7031 27C36.7031 24.3922 36.5768 21.8405 36.3332 19.4064H50.7176C51.4925 21.8316 51.8906 24.3828 51.8906 27C51.8906 29.6473 51.4736 32.1987 50.7045 34.5938ZM27 51.8906C25.2329 51.8906 23.3208 49.3194 21.8852 45.0126C21.0806 42.5985 20.4581 39.7785 20.038 36.7032H30.8539C31.1916 38.08 32.174 39.206 33.4621 39.741C31.8576 48.1242 29.0909 51.8906 27 51.8906ZM8.64844 40.9219C7.94317 40.9219 7.27629 41.0884 6.68387 41.3829C5.63509 39.9064 4.76023 38.3398 4.06582 36.7031H17.9113C18.3497 40.0219 19.0149 43.0721 19.884 45.6796C20.7198 48.187 21.693 50.1484 22.7771 51.5364C19.1238 50.9167 15.6766 49.4895 12.6171 47.3162C12.9116 46.7237 13.0781 46.0568 13.0781 45.3516C13.0781 42.909 11.091 40.9219 8.64844 40.9219ZM19.4062 27C19.4062 25.5609 19.4484 24.1249 19.5275 22.7156C21.2651 22.416 22.659 21.1017 23.0748 19.4062H34.2137C34.4638 21.8312 34.5938 24.3843 34.5938 27C34.5938 28.4344 34.5518 29.866 34.4731 31.2715C32.7021 31.5467 31.2755 32.8749 30.8539 34.5938H19.7861C19.5363 32.1689 19.4062 29.6158 19.4062 27ZM35.1558 37.9688C33.8764 37.9688 32.8355 36.9279 32.8355 35.6484C32.8355 34.369 33.8764 33.3281 35.1558 33.3281C36.4352 33.3281 37.4761 34.369 37.4761 35.6484C37.4761 36.9279 36.4352 37.9688 35.1558 37.9688ZM34.116 8.32043C33.2801 5.81291 32.3069 3.8514 31.2227 2.46343C34.8766 3.08306 38.3239 4.51005 41.3834 6.68377C41.0889 7.27629 40.9224 7.94317 40.9224 8.64844C40.9224 11.091 42.9095 13.0781 45.3521 13.0781C46.0574 13.0781 46.7241 12.9116 47.3167 12.6172C48.3655 14.0936 49.2401 15.6604 49.9344 17.297H36.0887C35.6503 13.9781 34.985 10.9279 34.116 8.32043ZM47.6724 8.64844C47.6724 9.92788 46.6315 10.9688 45.3521 10.9688C44.0726 10.9688 43.0318 9.92788 43.0318 8.64844C43.0318 7.369 44.0726 6.32812 45.3521 6.32812C46.6315 6.32812 47.6724 7.369 47.6724 8.64844ZM27 2.10938C28.7671 2.10938 30.6792 4.6806 32.1148 8.98741C32.9194 11.4015 33.5419 14.2216 33.962 17.2969H23.0749C22.743 15.9436 21.7882 14.8329 20.5326 14.2872C22.1357 5.88474 24.905 2.10938 27 2.10938ZM18.773 16.0314C20.0525 16.0314 21.0933 17.0722 21.0933 18.3517C21.0933 19.6311 20.0525 20.672 18.773 20.672C17.4936 20.672 16.4527 19.6311 16.4527 18.3517C16.4527 17.0722 17.4936 16.0314 18.773 16.0314ZM14.4713 19.4064C14.8384 20.9033 15.9678 22.1035 17.4232 22.5703C17.341 24.0277 17.2969 25.5125 17.2969 27C17.2969 29.6079 17.4232 32.1596 17.6668 34.5938H3.28293C2.50784 32.1681 2.10938 29.6168 2.10938 27C2.10938 24.3966 2.51068 21.8407 3.28925 19.4064H14.4713ZM6.32812 45.3516C6.32812 44.0721 7.369 43.0312 8.64844 43.0312C9.92788 43.0312 10.9688 44.0721 10.9688 45.3516C10.9688 46.631 9.92788 47.6719 8.64844 47.6719C7.369 47.6719 6.32812 46.631 6.32812 45.3516ZM31.2121 51.5325C31.6312 50.9993 32.0524 50.3588 32.468 49.5885C33.7515 47.2094 34.8108 43.9282 35.5485 40.0598C37.4523 39.8917 39.0134 38.5148 39.4577 36.7031H49.9211C46.6605 44.3762 39.6551 50.0872 31.2121 51.5325Z" fill="#236A8D"/>
<path d="M8.44336 9.92041C8.7219 9.92041 8.99285 9.80861 9.19008 9.61139C9.38625 9.41521 9.49805 9.14311 9.49805 8.86572C9.49805 8.58834 9.38625 8.31729 9.19008 8.12006C8.99285 7.92389 8.7219 7.81104 8.44336 7.81104C8.16598 7.81104 7.89387 7.92389 7.6978 8.12006C7.50163 8.31729 7.38867 8.58834 7.38867 8.86572C7.38867 9.14311 7.50152 9.41521 7.6978 9.61139C7.89387 9.80861 8.16598 9.92041 8.44336 9.92041Z" fill="#236A8D"/>
</g>
<defs>
<clipPath id="clip0_3531_1583">
<rect width="54" height="54" fill="white"/>
</clipPath>
</defs>
</svg>
